<?xml version="1.0" encoding="utf-8"?>
<!-- Generator: Adobe Illustrator 18.0.0, SVG Export Plug-In . SVG Version: 6.00 Build 0)  -->
<!DOCTYPE svg PUBLIC "-//W3C//DTD SVG 1.1//EN" "http://www.w3.org/Graphics/SVG/1.1/DTD/svg11.dtd">
<svg version="1.1" id="Layer_1" xmlns="http://www.w3.org/2000/svg" xmlns:xlink="http://www.w3.org/1999/xlink" x="0px" y="0px"
	 viewBox="0 0 194.3 147.8" enable-background="new 0 0 194.3 147.8" xml:space="preserve">
<g>
	<polygon fill="#1B9BD7" points="83.2,79.5 83.2,87.3 75.4,87.3 75.4,95 118.3,95 118.3,87.3 110.5,87.3 110.5,79.5 	"/>
	<g>
		<path fill="#1B9BD7" d="M184.5,101.6H9.2v27.3h175.2V101.6z M24.8,125c-5.4,0-9.7-4.4-9.7-9.7c0-5.4,4.4-9.7,9.7-9.7
			s9.7,4.4,9.7,9.7C34.5,120.7,30.2,125,24.8,125z M56,125c-5.4,0-9.7-4.4-9.7-9.7c0-5.4,4.4-9.7,9.7-9.7s9.7,4.4,9.7,9.7
			C65.7,120.7,61.3,125,56,125z M79.3,118.9c-2,0-3.7-1.6-3.7-3.7c0-2,1.6-3.7,3.7-3.7s3.7,1.6,3.7,3.7
			C83,117.3,81.3,118.9,79.3,118.9z M118.3,118.9c-2,0-3.7-1.6-3.7-3.7c0-2,1.6-3.7,3.7-3.7s3.7,1.6,3.7,3.7
			C121.9,117.3,120.3,118.9,118.3,118.9z M137.7,125c-5.4,0-9.7-4.4-9.7-9.7c0-5.4,4.4-9.7,9.7-9.7s9.7,4.4,9.7,9.7
			C147.5,120.7,143.1,125,137.7,125z M168.9,125c-5.4,0-9.7-4.4-9.7-9.7c0-5.4,4.4-9.7,9.7-9.7c5.4,0,9.7,4.4,9.7,9.7
			C178.6,120.7,174.3,125,168.9,125z"/>
		<circle fill="#1B9BD7" cx="56" cy="115.3" r="3.7"/>
		<circle fill="#1B9BD7" cx="24.8" cy="115.3" r="3.7"/>
		<circle fill="#1B9BD7" cx="137.7" cy="115.3" r="3.7"/>
		<circle fill="#1B9BD7" cx="168.9" cy="115.3" r="3.7"/>
	</g>
	<g>
		<path fill="#1B9BD7" d="M145.5,17.2H48.2v58.4h97.4V17.2z M137.7,67.8H56V24.9h81.8V67.8z"/>
		<path fill="#1B9BD7" d="M36.5,32.7h-35V95h35V32.7z M19,43.9c2.4,0,4.4,2,4.4,4.4s-2,4.4-4.4,4.4s-4.4-2-4.4-4.4
			S16.5,43.9,19,43.9z M19,87.3c-6.5,0-11.7-5.2-11.7-11.7c0-6.5,5.2-11.7,11.7-11.7s11.7,5.2,11.7,11.7C30.6,82,25.4,87.3,19,87.3z
			"/>
		<circle fill="#1B9BD7" cx="19" cy="75.6" r="4.4"/>
		<path fill="#1B9BD7" d="M157.2,95h35V32.7h-35V95z M174.7,43.9c2.4,0,4.4,2,4.4,4.4s-2,4.4-4.4,4.4s-4.4-2-4.4-4.4
			S172.3,43.9,174.7,43.9z M174.7,63.9c6.5,0,11.7,5.2,11.7,11.7c0,6.5-5.2,11.7-11.7,11.7s-11.7-5.2-11.7-11.7
			C163.1,69.1,168.3,63.9,174.7,63.9z"/>
		<circle fill="#1B9BD7" cx="174.7" cy="75.6" r="4.4"/>
	</g>
</g>
</svg>
