<?xml version="1.0" encoding="utf-8"?>
<!-- Generator: Adobe Illustrator 18.0.0, SVG Export Plug-In . SVG Version: 6.00 Build 0)  -->
<!DOCTYPE svg PUBLIC "-//W3C//DTD SVG 1.1//EN" "http://www.w3.org/Graphics/SVG/1.1/DTD/svg11.dtd">
<svg version="1.1" id="Layer_1" xmlns="http://www.w3.org/2000/svg" xmlns:xlink="http://www.w3.org/1999/xlink" x="0px" y="0px"
	 viewBox="0 0 214 207.9" enable-background="new 0 0 214 207.9" xml:space="preserve">
<g>
	<path opacity="0.3" fill="#FFFFFF" d="M203.1,53c0.1-0.8-0.4-1.5-1.2-1.6L183.8,49c-0.8-0.1-1.5,0.4-1.6,1.2l-4.2,32
		c-0.1,0.8,0.4,1.5,1.2,1.6l18.1,2.4c0.8,0.1,1.5-0.4,1.6-1.2L203.1,53z M197.6,82.5l-17.1-2.3l3.6-27.3l17.1,2.3L197.6,82.5z"/>
	<g opacity="0.3">
		<path fill="#FFFFFF" d="M55.7,87.1c0,0-1.1-0.7-1.8-1.2c-0.6-0.5-0.9-1.2-0.9-1.2L52,79.9l-12.4,1.6l0.2,4.8c0,0-0.1,0.8-0.5,1.4
			c-0.5,0.6-1.4,1.6-1.4,1.6s-0.8,0.8,0.6,0.8c0.8,0,4.3-0.4,7.2-0.7l2.7-0.4c2.9-0.4,6.3-0.9,7.1-1.2
			C56.7,87.6,55.7,87.1,55.7,87.1z"/>
		<path fill="#FFFFFF" d="M68.9,40.1L13,47.5c-0.8,0.1-1.4,1.2-1.3,2L16,82.3c0.1,0.8,0.9,1.7,1.7,1.6l20.7-2.7l1.2-0.2l12.2-1.6
			l1.2-0.2l20.6-2.7c0.8-0.1,1.4-1.2,1.3-2l-4.3-32.8C70.5,40.9,69.7,40,68.9,40.1z M72.2,74l-54.1,7.2L14,50.1L68,42.9L72.2,74z"/>
	</g>
	<g opacity="0.3">
		<path fill="#FFFFFF" d="M176.5,112c-0.1,0-0.2,0-0.3,0.1c-0.1,0.1-0.1,0.2-0.1,0.3c0,0.1,0,0.2,0.1,0.3c0.1,0.1,0.2,0.1,0.3,0.1
			c0.1,0,0.2,0,0.3-0.1c0.1-0.1,0.1-0.1,0.1-0.3c0-0.1,0-0.2-0.1-0.2C176.7,112,176.6,112,176.5,112z"/>
		<path fill="#FFFFFF" d="M177.3,105.7c0.1,0,0.3,0,0.3-0.1c0-0.1,0.1-0.1,0.1-0.2v-0.5h-0.8v0.5c0,0.1,0.1,0.2,0.1,0.2
			C177,105.6,177.2,105.7,177.3,105.7z"/>
		<path fill="#FFFFFF" d="M177.3,113.4c-0.1-0.1-0.3-0.1-0.5-0.1c-0.2,0-0.3,0-0.4,0.1c-0.2,0.1-0.2,0.2-0.2,0.3
			c0,0.1,0,0.2,0.1,0.3c0.1,0.1,0.3,0.1,0.6,0.1c0.2,0,0.4,0,0.5-0.1c0.1,0,0.2-0.1,0.2-0.3C177.5,113.6,177.4,113.5,177.3,113.4z"
			/>
		<path fill="#FFFFFF" d="M181.1,143.5l1.2-44.3c0,0-0.4-1-0.6-1.5c-0.3-0.5-0.6-0.5-0.6-0.5l-6.7-0.1v0l-2,0l-2,0v0l-6.5,0.1
			c0,0-0.4,0.1-0.6,0.5c-0.3,0.5-0.5,1.5-0.5,1.5l1.2,44.3l-1.2,23.6c0,0,0.2,1.9,1.2,2.1c0.7,0.1,5.5,0.2,7.5,0.2v0c0,0,0.5,0,1,0
			c0.5,0,1,0,1,0v0c2,0,6.9-0.1,7.6-0.2c1-0.2,1.4-2.1,1.4-2.1L181.1,143.5z M175.4,104.1l0.7-0.5l-0.7-0.5v-0.3l1.5,0.6l1.5-0.6
			v0.3l-0.7,0.4l0.7,0.4v0.3l-1.5-0.6l-1.5,0.6V104.1z M175.4,105.1h3v0.3c0,0.2-0.4,0.4-0.5,0.4c-0.1,0.1-0.3,0.1-0.4,0.1
			c-0.1,0-0.3,0-0.4-0.1c0,0-0.1-0.1-0.1-0.1c0,0.1-0.1,0.2-0.1,0.2c-0.1,0.1-0.2,0.1-0.3,0.1c-0.1,0-0.5,0-0.6-0.1
			c-0.1-0.1-0.5-0.3-0.5-0.5V105.1z M172.5,148c-2,0-3.7-1.6-3.7-3.7c0-2,1.6-3.7,3.7-3.7c2,0,3.7,1.6,3.7,3.7
			C176.2,146.4,174.5,148,172.5,148z M177.4,114.2c-0.1,0.1-0.3,0.1-0.6,0.1c-0.2,0-0.4,0-0.6-0.1c-0.2-0.1-0.3-0.3-0.3-0.5
			c0-0.2,0.1-0.4,0.3-0.5c0.1-0.1,0.3-0.1,0.6-0.1c0.2,0,0.4,0,0.5,0.1c0.3,0.1,0.4,0.3,0.4,0.5
			C177.7,113.9,177.6,114.1,177.4,114.2z M176.2,111.2c0.1,0.1,0.1,0.1,0.2,0.1c0.1,0,0.2,0,0.3-0.1c0-0.1,0.1-0.2,0.1-0.3
			c0,0,0,0,0,0c0,0,0-0.3,0-0.3h0.2c0,0,0,0.2,0,0.2c0,0,0,0.1,0,0.1c0,0.1,0,0.2,0,0.2c0,0.1,0.1,0.2,0.2,0.2c0.1,0,0.2,0,0.2-0.1
			c0-0.1,0.1-0.1,0.1-0.2c0-0.1-0.2-0.2-0.3-0.3c-0.1,0-0.4,0-0.4,0v-0.2c0.5,0,0.4,0,0.5,0.1c0.2,0.1,0.3,0.2,0.3,0.5
			c0,0.2,0,0.3-0.1,0.4c-0.1,0.1-0.2,0.1-0.3,0.1c-0.1,0-0.2,0-0.2-0.1c0,0-0.1-0.1-0.1-0.1c0,0.1-0.1,0.2-0.1,0.2
			c-0.1,0.1-0.2,0.1-0.3,0.1c-0.2,0-0.3-0.1-0.4-0.2c-0.1-0.1-0.2-0.3-0.2-0.5c0-0.2-0.1-0.3,0-0.4c0.1-0.1,0.3-0.1,0.3-0.1v0.2
			c0,0-0.1,0-0.1,0.1c-0.1,0.1-0.1,0.2-0.1,0.3C176.1,111.1,176.2,111.1,176.2,111.2z M177.3,112.8c-0.1,0.1,0,0.1-0.5,0.1v-0.2
			c0.5,0,0.3,0,0.4-0.1c0.1-0.1,0.2-0.1,0.2-0.2c0-0.1,0-0.2-0.1-0.3c-0.1-0.1-0.2-0.1-0.5-0.1c0.1,0,0.1,0.1,0.2,0.2
			c0,0.1,0.1,0.1,0.1,0.2c0,0.1,0,0.3-0.1,0.4c-0.1,0.1-0.2,0.2-0.4,0.2c-0.2,0-0.3-0.1-0.4-0.2c-0.1-0.1-0.2-0.2-0.2-0.4
			c0-0.2,0.1-0.3,0.2-0.4c0.1-0.1,0.3-0.2,0.6-0.2c0.2,0,0.4,0,0.5,0.1c0.3,0.1,0.3,0.3,0.3,0.5
			C177.6,112.6,177.4,112.7,177.3,112.8z M178.4,108.4l-0.7,0.4l0.7,0.4v0.3l-1.5-0.6l-1.5,0.6v-0.3l0.7-0.5l-0.7-0.5V108l1.5,0.6
			l1.5-0.6V108.4z M177.5,107.7c-0.2,0.1-0.4,0.2-0.6,0.2c-0.3,0-0.5-0.1-0.7-0.2c-0.2-0.2-0.3-0.4-0.3-0.7c0-0.3,0.1-0.5,0.3-0.6
			c0.2-0.1,0.4-0.2,0.7-0.2c0.2,0,0.4,0.1,0.6,0.2c0.2,0.2,0.3,0.4,0.3,0.7C177.8,107.3,177.7,107.6,177.5,107.7z"/>
		<path fill="#FFFFFF" d="M176.8,106.4c-0.2,0-0.4,0-0.5,0.1c-0.1,0.1-0.2,0.3-0.2,0.5c0,0.2,0.1,0.4,0.2,0.5
			c0.2,0.1,0.3,0.1,0.5,0.1c0.2,0,0.4-0.1,0.5-0.2c0.1-0.1,0.2-0.3,0.2-0.4c0-0.2-0.1-0.3-0.2-0.4
			C177.3,106.5,177.1,106.4,176.8,106.4z"/>
		<path fill="#FFFFFF" d="M176.3,105.7c0.1,0,0.1,0.1,0.2,0.1c0.1,0,0.3-0.1,0.3-0.2c0-0.1,0.1-0.1,0.1-0.2v-0.5h-0.8v0.6
			C176.1,105.5,176.2,105.6,176.3,105.7z"/>
	</g>
	<g opacity="0.2">
		<path fill="#FFFFFF" d="M154.7,174.1l-7.3-37.6c-0.2-1.2-1.6-2-2.7-1.8l-56.3,10.9c-1.2,0.2-1.6,1.4-1.4,2.6l7.3,37.6L154.7,174.1
			z M89.9,149.2l54.1-10.5l6.6,33.9l-54.1,10.5L89.9,149.2z"/>
		<polygon fill="#FFFFFF" points="155.8,175.5 154.8,175.7 94.5,187.4 89,188.4 85,189.2 85.7,192.9 164.8,177.6 164.1,173.9 		"/>
	</g>
	<g opacity="0.2">
		<path fill="#FFFFFF" d="M68.6,118.1c-5.8,0-17.4,0-23.2,0c-0.2,0-1-0.2-1-0.2v1v1.4v28v24.3v4.5c0,0,0.8,0,1,0
			c5.8,0,17.4,0,23.2,0c0.2,0,0.8,0,0.8,0v-3.4v-25.5v-27.2v-2.2v-1C69.4,117.9,68.8,118.1,68.6,118.1z M56.9,171.6
			c-5.2,0-9.5-4.3-9.5-9.5s4.3-9.5,9.5-9.5c5.2,0,9.5,4.3,9.5,9.5S62.2,171.6,56.9,171.6z M47.4,148.1v-26h20v26H47.4z"/>
		<circle fill="#FFFFFF" cx="56.8" cy="162.1" r="4.5"/>
	</g>
	<path opacity="0.2" fill="#FFFFFF" d="M118.8,16.8c-6-1.8-17.9-5.4-23.8-7.2c-0.2-0.1-0.9-0.6-0.9-0.6l-0.6,1.9L80.9,52.5L79.9,56
		c0,0,0.7,0.5,0.9,0.6c6,1.8,17.9,5.4,23.8,7.2c0.3,0.1,1.1,0,1.1,0l0.8-2.7l12.6-41.9l0.8-2.5C119.9,16.7,119,16.8,118.8,16.8z
		 M104.8,14.2l3.1,0.9c0.2,0,0.2,0.4,0.1,0.6c0,0.2-0.3,0.5-0.4,0.4l-3.1-0.9c-0.2,0-0.2-0.4-0.1-0.6
		C104.4,14.5,104.6,14.2,104.8,14.2z M94.8,55.2l-1.5-0.7l0.3-0.9l1.6,0.3L94.8,55.2z M105.4,55.6l-20.7-6.2l10.6-35.2l20.7,6.2
		L105.4,55.6z"/>
	<g>
		<path fill="#939393" d="M148.9,151.5V80.9V151.5z"/>
		<g>
			<defs>
				<path id="SVGID_1_" d="M56.8,75.3c0,0,6,68.9,59.7,91.8c3.4-1.7,66.5-40.1,66.3-123.3c-12.9-6.5-25.7-9-37.9-9
					C96.4,34.8,56.8,75.3,56.8,75.3z"/>
			</defs>
			<clipPath id="SVGID_2_">
				<use xlink:href="#SVGID_1_"  overflow="visible"/>
			</clipPath>
			
				<linearGradient id="SVGID_3_" gradientUnits="userSpaceOnUse" x1="30.9987" y1="292.4312" x2="31.7396" y2="292.4312" gradientTransform="matrix(40.8696 210.3203 -183.069 35.5741 52372.6016 -16901.5977)">
				<stop  offset="0" style="stop-color:#BDBEC0"/>
				<stop  offset="0.25" style="stop-color:#DFDFDF"/>
				<stop  offset="0.51" style="stop-color:#FFFFFF"/>
				<stop  offset="0.75" style="stop-color:#E9E9EA"/>
				<stop  offset="1" style="stop-color:#D2D3D4"/>
			</linearGradient>
			<polygon clip-path="url(#SVGID_2_)" fill="url(#SVGID_3_)" points="32.1,39.6 61.4,190.7 207.9,162.3 178.5,11.1 			"/>
		</g>
		<g>
			<defs>
				<path id="SVGID_4_" d="M64.8,78.6c0,0,5.2,60.2,52.2,80.2c2.9-1.5,58.2-35.1,58-107.8c-11.3-5.7-22.5-7.9-33.2-7.9
					C99.3,43.1,64.8,78.6,64.8,78.6"/>
			</defs>
			<clipPath id="SVGID_5_">
				<use xlink:href="#SVGID_4_"  overflow="visible"/>
			</clipPath>
			
				<linearGradient id="SVGID_6_" gradientUnits="userSpaceOnUse" x1="31.0365" y1="292.3034" x2="31.7773" y2="292.3034" gradientTransform="matrix(87.0295 188.3776 -173.7693 80.2805 48179.9883 -29281.6504)">
				<stop  offset="0" style="stop-color:#2BACE2"/>
				<stop  offset="0.22" style="stop-color:#1E94D2"/>
				<stop  offset="0.33" style="stop-color:#1FA1DB"/>
				<stop  offset="0.44" style="stop-color:#2BACE2"/>
				<stop  offset="0.72" style="stop-color:#1985C7"/>
				<stop  offset="1" style="stop-color:#085DAA"/>
			</linearGradient>
			<polygon clip-path="url(#SVGID_5_)" fill="url(#SVGID_6_)" points="20.7,63.4 84.2,200.8 219.2,138.4 155.7,1.1 			"/>
		</g>
		<g>
			<defs>
				<path id="SVGID_7_" d="M64.8,78.6c0,0,54.2-55.6,110.1-27.6c0.2,72.7-55,106.3-58,107.8C70,138.8,64.8,78.6,64.8,78.6z
					 M64.3,78.4c0,0,5.3,60.7,52.6,80.9c3-1.5,58.7-35.4,58.5-108.7c-11.4-5.7-22.6-8-33.4-8C99.2,42.6,64.3,78.4,64.3,78.4z"/>
			</defs>
			<clipPath id="SVGID_8_">
				<use xlink:href="#SVGID_7_"  overflow="visible"/>
			</clipPath>
			
				<linearGradient id="SVGID_9_" gradientUnits="userSpaceOnUse" x1="31.2491" y1="292.1801" x2="32.0068" y2="292.1801" gradientTransform="matrix(182.2829 130.3464 -131.4969 183.8919 32775.2734 -57761.1992)">
				<stop  offset="0" style="stop-color:#BDBEC0"/>
				<stop  offset="8.000000e-02" style="stop-color:#DFDFDF"/>
				<stop  offset="0.15" style="stop-color:#FFFFFF"/>
				<stop  offset="0.51" style="stop-color:#FFFFFF"/>
				<stop  offset="0.83" style="stop-color:#FFFFFF"/>
				<stop  offset="0.92" style="stop-color:#E9E9EA"/>
				<stop  offset="1" style="stop-color:#D2D3D4"/>
			</linearGradient>
			<polygon clip-path="url(#SVGID_8_)" fill="url(#SVGID_9_)" points="-0.2,113.1 137.9,211.9 240.1,69.1 102,-29.7 			"/>
		</g>
		<g>
			<defs>
				<path id="SVGID_10_" d="M101.7,56.8c0,0-20.3,7.1-27.9,15.6c-3,22.3,6.5,41.3,18,60.3c7.6-1.9,9.9-4,9.9-4S94.7,89.2,101.7,56.8
					z"/>
			</defs>
			<clipPath id="SVGID_11_">
				<use xlink:href="#SVGID_10_"  overflow="visible"/>
			</clipPath>
			<defs>
				<filter id="Adobe_OpacityMaskFilter" filterUnits="userSpaceOnUse" x="42.2" y="45.1" width="88.1" height="99.3">
					<feColorMatrix  type="matrix" values="1 0 0 0 0  0 1 0 0 0  0 0 1 0 0  0 0 0 1 0"/>
				</filter>
			</defs>
			<mask maskUnits="userSpaceOnUse" x="42.2" y="45.1" width="88.1" height="99.3" id="SVGID_12_">
				<g filter="url(#Adobe_OpacityMaskFilter)">
					<g>
						<defs>
							<rect id="SVGID_13_" x="70.8" y="-1517.6" width="1209.7" height="1650.3"/>
						</defs>
						<clipPath id="SVGID_14_" clip-path="url(#SVGID_11_)">
							<use xlink:href="#SVGID_13_"  overflow="visible"/>
						</clipPath>
						
							<linearGradient id="SVGID_15_" gradientUnits="userSpaceOnUse" x1="31.4629" y1="292.6635" x2="32.2861" y2="292.6635" gradientTransform="matrix(1005.7217 2215.4771 -1973.1647 895.7233 546092.0625 -333455.2188)">
							<stop  offset="0" style="stop-color:#636464"/>
							<stop  offset="2.000000e-02" style="stop-color:#898989"/>
							<stop  offset="3.000000e-02" style="stop-color:#ADADAD"/>
							<stop  offset="0.51" style="stop-color:#636464"/>
							<stop  offset="0.99" style="stop-color:#010101"/>
							<stop  offset="1" style="stop-color:#010101"/>
						</linearGradient>
						<polygon clip-path="url(#SVGID_14_)" fill="url(#SVGID_15_)" points="-550.4,-1235.6 277.5,588.1 1901.6,-149.2 
							1073.8,-1972.9 						"/>
					</g>
				</g>
			</mask>
			
				<linearGradient id="SVGID_16_" gradientUnits="userSpaceOnUse" x1="31.472" y1="293.0608" x2="32.2768" y2="293.0608" gradientTransform="matrix(1005.7216 2215.4771 -1973.1647 895.7233 546091.75 -333453.2188)">
				<stop  offset="0" style="stop-color:#26C4F4"/>
				<stop  offset="2.000000e-02" style="stop-color:#2EC5F3"/>
				<stop  offset="3.000000e-02" style="stop-color:#32C5F1"/>
				<stop  offset="0.51" style="stop-color:#9BDBF2"/>
				<stop  offset="0.99" style="stop-color:#FFFFFF"/>
				<stop  offset="1" style="stop-color:#FFFFFF"/>
			</linearGradient>
			<polygon clip-path="url(#SVGID_11_)" mask="url(#SVGID_12_)" fill="url(#SVGID_16_)" points="42.2,69.7 76.1,144.4 130.3,119.8 
				96.4,45.1 			"/>
		</g>
		<path opacity="0.1" fill="#FFFFFF" d="M135.3,115.8c-5.3,0.2-10.6-0.2-16-1.1c1.2-3.8,2.4-7.6,3.7-11.4c4.1,1.4,8.2,2.3,12.4,2.9
			C135.3,109.4,135.3,112.6,135.3,115.8"/>
		<path opacity="0.1" fill="#FFFFFF" d="M153.8,113.1c-5,1.3-10.2,2.1-15.4,2.5c-0.2-3-0.4-6-0.5-9.1c4.2,0.4,8.4,0.5,12.6,0.2
			C151.5,108.9,152.7,111,153.8,113.1"/>
		<path opacity="0.1" fill="#FFFFFF" d="M135.4,126.7c-6.6,1-13.3,1.4-20.2,1.2c1.1-3.7,2.2-7.5,3.4-11.2c5.6,0.8,11.2,1,16.6,0.7
			C135.3,120.5,135.4,123.6,135.4,126.7"/>
		<path opacity="0.1" fill="#FFFFFF" d="M158,120.4c-6,2.5-12.2,4.4-18.7,5.6c-0.3-2.9-0.5-5.9-0.8-8.9c5.4-0.5,10.8-1.5,15.9-2.9
			C155.6,116.3,156.7,118.4,158,120.4"/>
		<g>
			<defs>
				<path id="SVGID_17_" d="M140.1,71.4c-0.1,1.2-0.1,2.5-0.2,3.7c-0.4,4.4-0.8,8.9-1.2,13.3c-0.6,6.1-1.3,12.2-1.9,18.4
					c-0.4,2.8-0.7,5.5-1.1,8.3c2.8,0.1,4.6,0.2,5.2,0.2c1.7,0.1,3.4,0.3,5,0.4c0.1-1.6,0.2-2.8,0.3-3.7c0.2-2.2,0.5-5.7,1-10.4
					c0.5-4.4,1-8.9,1.5-13.3c0.5-4.2,1.1-8.5,1.8-13.1c1.1,0.1,2.4,0.2,3.9,0.3c1.5,0.1,2.9,0.2,4.4,0.4c1.6,0.2,2.9,0.4,3.8,0.7
					c0.9,0.3,1.6,0.7,2.3,1.3c0.7,0.6,1.1,1.3,1.4,2.2c0.3,0.9,0.4,1.8,0.2,2.8c-0.2,1.6-0.8,3.1-1.9,4.3c-1.1,1.2-2.4,2-4,2.4
					c-1.6,0.4-3.4,0.5-5.4,0.3c-1.5-0.2-3-0.5-4.5-0.9c0.5,2.2,0.9,4.5,1.2,7c1.9,0.5,3.6,0.8,5.3,1c3.4,0.4,6.5,0.1,9.5-0.7
					c2.9-0.8,5.4-2.3,7.4-4.5c2-2.2,3.2-4.8,3.7-7.8c0.3-2,0.2-3.9-0.3-5.7c-0.5-1.6-1.3-3.1-2.5-4.4c-1.2-1.3-2.7-2.3-4.4-3.1
					c-1.6-0.7-4.3-1.3-7.9-1.7c-1.8-0.2-4.1-0.4-7.1-0.6c-3-0.2-5.3-0.4-7-0.5c-2.1-0.2-4.8-0.4-8.2-0.6
					C140.2,69.1,140.2,70.5,140.1,71.4z"/>
			</defs>
			<clipPath id="SVGID_18_">
				<use xlink:href="#SVGID_17_"  overflow="visible"/>
			</clipPath>
			
				<linearGradient id="SVGID_19_" gradientUnits="userSpaceOnUse" x1="30.5404" y1="292.5369" x2="31.3642" y2="292.5369" gradientTransform="matrix(0 118.7742 -51.3419 0 15176.2832 -3589.0454)">
				<stop  offset="0" style="stop-color:#BDBEC0"/>
				<stop  offset="0.18" style="stop-color:#DFDFDF"/>
				<stop  offset="0.36" style="stop-color:#FFFFFF"/>
				<stop  offset="0.51" style="stop-color:#FFFFFF"/>
				<stop  offset="0.58" style="stop-color:#FFFFFF"/>
				<stop  offset="0.66" style="stop-color:#FDFEFF"/>
				<stop  offset="0.83" style="stop-color:#E7E7E7"/>
				<stop  offset="1" style="stop-color:#D2D3D4"/>
			</linearGradient>
			<rect x="135.8" y="67.3" clip-path="url(#SVGID_18_)" fill="url(#SVGID_19_)" width="42.3" height="48.4"/>
		</g>
		<g>
			<defs>
				<path id="SVGID_20_" d="M84.5,67.7h-0.1h-0.1h-0.1h-0.1c-1.9,0-3.7,0.1-5.4,0.3c-4.2,0.4-7.6,1.4-10.2,2.9
					c-2.6,1.5-4.4,3.2-5.5,5.4c-1.1,2.1-1.4,4.3-1.1,6.4c0.2,1.2,0.5,2.3,1,3.3c0.5,1,1.2,1.9,2.2,2.9c0.9,0.9,2.3,2,3.9,3.1
					c0.7,0.5,2.1,1.4,4,2.5c4,2.5,6.7,4.3,8.2,5.4c1.2,0.8,2,1.6,2.6,2.4c0.4,0.6,0.6,1.3,0.7,2.1c0.1,1-0.1,2-0.7,2.9
					c-0.5,0.9-1.4,1.6-2.7,2.2c-1.3,0.6-2.6,1-4.1,1.2c-3.8,0.5-6.8-0.2-11.7-1.6c0.7,2.2,2.3,6.1,3.6,9.2c3.3,0.2,3.1-0.1,5.1-0.1
					c2,0,3.7-0.1,5.2-0.3c2.2-0.3,4.3-0.7,6.3-1.3c2-0.6,3.7-1.6,5.4-2.8c1.6-1.3,2.8-2.8,3.6-4.6c0.8-1.8,1.1-3.7,1-5.6
					c-0.1-0.8-0.2-1.6-0.4-2.4c-0.2-0.8-0.6-1.5-1-2.2c-0.4-0.7-1-1.4-1.7-2.2c-0.7-0.7-1.5-1.5-2.5-2.3c-1-0.8-2.1-1.6-3.3-2.4
					c-1.6-1.2-3.3-2.3-5-3.5c-0.8-0.4-1.8-1-3-1.7c-1.2-0.7-2.1-1.3-2.7-1.9c-0.6-0.5-1.1-1-1.3-1.4c-0.3-0.4-0.5-0.7-0.6-1.1
					c-0.2-0.4-0.3-0.8-0.3-1.1c-0.2-1.4,0.5-2.7,2-3.9c1.5-1.2,3.5-2,6-2.2c3.4-0.3,7.2,0,11.3,1.2c-0.6-3.1-1-5.9-1.3-8.3
					C89.1,67.8,86.7,67.7,84.5,67.7"/>
			</defs>
			<clipPath id="SVGID_21_">
				<use xlink:href="#SVGID_20_"  overflow="visible"/>
			</clipPath>
			
				<linearGradient id="SVGID_22_" gradientUnits="userSpaceOnUse" x1="30.5457" y1="292.1072" x2="31.3691" y2="292.1072" gradientTransform="matrix(0 119.1733 -41.2177 0 12118.5322 -3601.8943)">
				<stop  offset="0" style="stop-color:#BDBEC0"/>
				<stop  offset="0.18" style="stop-color:#DFDFDF"/>
				<stop  offset="0.36" style="stop-color:#FFFFFF"/>
				<stop  offset="0.51" style="stop-color:#FFFFFF"/>
				<stop  offset="0.58" style="stop-color:#FFFFFF"/>
				<stop  offset="0.66" style="stop-color:#FDFEFF"/>
				<stop  offset="0.83" style="stop-color:#E7E7E7"/>
				<stop  offset="1" style="stop-color:#D2D3D4"/>
			</linearGradient>
			<rect x="61.6" y="67.7" clip-path="url(#SVGID_21_)" fill="url(#SVGID_22_)" width="33.9" height="50.7"/>
		</g>
		<g>
			<defs>
				<path id="SVGID_23_" d="M117.4,65.8L117.4,65.8L117.4,65.8L117.4,65.8L117.4,65.8L117.4,65.8L117.4,65.8L117.4,65.8L117.4,65.8
					L117.4,65.8L117.4,65.8L117.4,65.8L117.4,65.8L117.4,65.8L117.4,65.8L117.4,65.8h-0.1c-3.7,0-7.3,0.4-10.6,1
					c-3.3,0.7-6.4,1.9-9.3,3.6c-2.8,1.7-5.2,3.8-7.1,6.3c-1.9,2.5-3.2,5.2-4,8.1c-0.8,2.9-1,5.8-0.8,8.8c0.3,3.5,1.3,6.8,2.8,9.8
					c1.6,3,3.6,5.4,6.2,7.2c2.6,1.8,5.6,3,9.1,3.7c3.5,0.7,7.3,1,11.4,1c2.2,0,4.8-0.2,7.9-0.5c3.1-0.3,6.6-0.7,10.5-1.3
					c0.7-9.6,1.5-18.2,2.5-26c-2.8-0.1-6.2-0.2-10.3-0.3c-3.1-0.1-6.4-0.1-9.9-0.1c0,1.7-0.1,4.1-0.3,7.2c2.5-0.1,4.6-0.1,6.3-0.1
					c1,0,1.9,0,2.9,0.1c-0.3,4.1-0.5,8.2-0.8,12.3c-1.9,0.5-3.6,0.9-5.3,1.1c-1.7,0.2-3.2,0.3-4.4,0.4c-3.4,0.1-6.5-0.5-9.2-1.7
					c-2.7-1.2-4.7-2.9-6-5.3c-1.3-2.3-2-5-2.2-8c-0.2-2.7,0.2-5.4,1.1-8c0.9-2.6,2.3-4.8,4.3-6.6c2-1.8,4.3-3.2,7.2-4.1
					c2.8-0.9,5.8-1.3,9-1.3c4.9,0,10.5,1,16.5,3.1c-0.1-2.9-0.2-5.7-0.1-8.4C128.4,66.5,122.5,65.8,117.4,65.8"/>
			</defs>
			<clipPath id="SVGID_24_">
				<use xlink:href="#SVGID_23_"  overflow="visible"/>
			</clipPath>
			
				<linearGradient id="SVGID_25_" gradientUnits="userSpaceOnUse" x1="30.5373" y1="292.3822" x2="31.3603" y2="292.3822" gradientTransform="matrix(0 118.7598 -61.6266 0 18129.2539 -3588.1785)">
				<stop  offset="0" style="stop-color:#BDBEC0"/>
				<stop  offset="0.18" style="stop-color:#DFDFDF"/>
				<stop  offset="0.36" style="stop-color:#FFFFFF"/>
				<stop  offset="0.51" style="stop-color:#FFFFFF"/>
				<stop  offset="0.58" style="stop-color:#FFFFFF"/>
				<stop  offset="0.66" style="stop-color:#FDFEFF"/>
				<stop  offset="0.83" style="stop-color:#E7E7E7"/>
				<stop  offset="1" style="stop-color:#D2D3D4"/>
			</linearGradient>
			<rect x="85.4" y="65.8" clip-path="url(#SVGID_24_)" fill="url(#SVGID_25_)" width="50.7" height="49.7"/>
		</g>
		<path fill="#0A61AD" d="M97.1,42.7c0,0.2-0.2,0.4-0.4,0.4c-0.2,0-0.4-0.2-0.4-0.4c0-0.2,0.2-0.4,0.4-0.4
			C96.9,42.3,97.1,42.5,97.1,42.7"/>
	</g>
</g>
</svg>
