<?xml version="1.0" encoding="utf-8"?>
<!-- Generator: Adobe Illustrator 18.0.0, SVG Export Plug-In . SVG Version: 6.00 Build 0)  -->
<!DOCTYPE svg PUBLIC "-//W3C//DTD SVG 1.1//EN" "http://www.w3.org/Graphics/SVG/1.1/DTD/svg11.dtd">
<svg version="1.1" id="Layer_1" xmlns="http://www.w3.org/2000/svg" xmlns:xlink="http://www.w3.org/1999/xlink" x="0px" y="0px"
	 viewBox="0 0 194.3 147.8" enable-background="new 0 0 194.3 147.8" xml:space="preserve">
<g>
	<path fill="#1B9BD7" d="M12,128v9.3v4.6h7v-4.6h51v4.6h7v-4.6V128V97.8H12V128z M30.5,107.1h30.1v2.3H30.5V107.1z"/>
	<path fill="#1B9BD7" d="M12,95.5h64.9V12H12V95.5z M65.3,45.7c0-0.6,0.5-1.2,1.2-1.2c0.6,0,1.2,0.5,1.2,1.2v25.5
		c0,0.6-0.5,1.2-1.2,1.2c-0.6,0-1.2-0.5-1.2-1.2V45.7z"/>
</g>
<g>
	<path fill="#1B9BD7" d="M136.7,93.8c1.1,0,2.1,0.4,3,0.9l-1.9-8.7c-0.4-2.3-2.1-3.8-4.4-3.8H93.9c-2,0-3.7,1.6-4.2,3.8l-1.8,8.1
		c0.6-0.2,1.2-0.3,1.8-0.3H136.7z M130.6,85c1.7,0,3,1.3,3,3s-1.3,3-3,3c-1.7,0-3-1.3-3-3S128.9,85,130.6,85z M121.2,85
		c1.7,0,3,1.3,3,3s-1.3,3-3,3c-1.7,0-3-1.3-3-3S119.5,85,121.2,85z M109.5,85.4h5.2v2.1h-5.2V85.4z M109.5,89.6h5.2v2.1h-5.2V89.6z"
		/>
	<path fill="#1B9BD7" d="M89.7,141.9h47c1.7,0,3.1-1.4,3.1-3.1V99c0-0.4-0.1-0.8-0.2-1.2c0-0.1-0.1-0.2-0.1-0.3
		c-0.1-0.2-0.3-0.4-0.4-0.6c-0.1-0.1-0.2-0.2-0.3-0.3c0,0.2-0.1,0.5-0.1,0.7c-0.1,0.5-0.3,0.9-0.5,1.4c0,0.1-0.1,0.2-0.1,0.3
		c-0.7,1.2-1.9,2.1-3.5,2.1H94c-1.4,0-2.7-0.7-3.7-1.8c-0.1-0.1-0.1-0.2-0.2-0.2c-0.4-0.5-0.8-1.1-1-1.6c-0.2-0.5-0.3-0.9-0.4-1.4
		c-0.3,0.1-0.5,0.2-0.7,0.3c-0.2,0.1-0.4,0.3-0.5,0.4c-0.1,0.1-0.2,0.2-0.2,0.3c-0.4,0.5-0.6,1.2-0.6,1.9v39.7
		C86.5,140.5,88,141.9,89.7,141.9z M113.4,105.6c8.9,0,16.2,7.3,16.2,16.2s-7.3,16.2-16.2,16.2s-16.2-7.3-16.2-16.2
		S104.4,105.6,113.4,105.6z"/>
	<path fill="#1B9BD7" d="M94,99h40.1h0.4c0.2,0,0.4,0,0.5-0.1c1.1-0.4,1.6-1.9,1.7-3h-46C90.9,97.4,92.5,99,94,99z"/>
	<path fill="#1B9BD7" d="M113.4,134.8c7.2,0,13.1-5.9,13.1-13.1c0-7.2-5.9-13.1-13.1-13.1c-7.2,0-13.1,5.9-13.1,13.1
		C100.3,129,106.2,134.8,113.4,134.8z M119.7,114.9c0.9,0,1.6,0.7,1.6,1.6s-0.7,1.6-1.6,1.6s-1.6-0.7-1.6-1.6
		C118.1,115.6,118.8,114.9,119.7,114.9z M114.5,111.7c0.9,0,1.6,0.7,1.6,1.6c0,0.9-0.7,1.6-1.6,1.6s-1.6-0.7-1.6-1.6
		C112.9,112.4,113.6,111.7,114.5,111.7z M103.8,120.3c1.1-0.8,3.1-2,5.8-2c2,0,3,0.7,4,1.5c0-0.1,0-0.2,0-0.3c0-1.1,0.9-2.1,2.1-2.1
		s2.1,0.9,2.1,2.1c0,0.8-0.4,1.4-1,1.8c0.4,0.1,0.9,0.1,1.4,0.1c2.8,0,4.1-1.4,4.6-2.5c0.3,0.9,0.4,1.9,0.4,2.8
		c0,5.4-4.4,9.7-9.7,9.7s-9.7-4.4-9.7-9.7C103.6,121.3,103.7,120.8,103.8,120.3z"/>
</g>
<path fill="#1B9BD7" d="M93.8,71.3h56.3V37.1H93.8V71.3z M141.8,41.2c1.4,0,2.5,1.1,2.5,2.5c0,1.4-1.1,2.5-2.5,2.5s-2.5-1.1-2.5-2.5
	C139.3,42.3,140.4,41.2,141.8,41.2z M141.8,49.2c1.4,0,2.5,1.1,2.5,2.5c0,1.4-1.1,2.5-2.5,2.5s-2.5-1.1-2.5-2.5
	C139.3,50.3,140.4,49.2,141.8,49.2z M97.8,41.2H134v26.1H97.8V41.2z"/>
<g>
	<path fill="#1B9BD7" d="M183.1,78c-5.4-3.1-12.9-3.3-19.4-0.3c-6.1,2.7-10.5,8.6-13.1,13.1c-1.2-0.3-2.4,0.3-3,1.4
		c-0.5,1.1-0.2,2.3,0.6,3.1c-0.2,0.5-0.4,0.9-0.4,1l-12.6,27.7c-1.3-0.6-2.8-0.1-3.4,1.2c-0.6,1.3-0.1,2.8,1.2,3.5l0.1,0l-2.8,6.2
		h-7c-1.4,0-2.6,1.2-2.6,2.6s1.2,2.6,2.6,2.6h13c1.4,0,2.6-1.2,2.6-2.6s-1.2-2.6-2.6-2.6h-0.2l1.8-4c0.2,0.1,0.5,0.1,0.7,0.1
		c1,0,1.9-0.5,2.3-1.4c0.6-1.2,0.2-2.6-0.9-3.3l13.1-28.7c0.4,0.2,0.7,0.2,1.1,0.2c1,0,1.9-0.5,2.3-1.5c0.6-1.2,0.1-2.7-1.1-3.4
		c2.2-3.8,5.8-8.5,10.5-10.5c5-2.2,10.8-2.2,14.7,0.1c2.9,1.7,4.6,4.3,4.9,7.9c0.7,6.7,0.1,11.2-1.8,13.3c-0.2,0.2-0.4,0.4-0.6,0.5
		v5.8c1.6-0.5,3.1-1.4,4.4-2.9c3-3.4,4-9,3.1-17.4C190.1,84.7,187.4,80.5,183.1,78z"/>
	<path fill="#1B9BD7" d="M175.7,121.9c1.7,0,3.3,0.4,4.8,1.1v-12.3v-5.3v-3c0-1.4,0.1-1.3-1.3-1.3H174c-1.4,0-15.9,1.2-19.8,20.1
		l-2.5,15.7c0,1.4,1.2,3.3,2.6,3.3h12.4c-1.5-1.9-2.4-4.3-2.4-6.9C164.4,127,169.5,121.9,175.7,121.9z"/>
	<path fill="#1B9BD7" d="M181.7,126.9c-0.4-0.4-0.8-0.7-1.3-1c-1.4-0.9-3-1.4-4.8-1.4c-4.8,0-8.7,3.9-8.7,8.7c0,2.8,1.4,5.3,3.4,6.9
		c0.7,0.6,1.5,1,2.4,1.3c0.9,0.3,1.8,0.5,2.8,0.5c1,0,2-0.2,2.8-0.5c0.9-0.3,1.8-0.8,2.5-1.4c0.7-0.6,1.3-1.2,1.8-2
		c0.9-1.4,1.5-3.1,1.5-4.9c0-1.7-0.5-3.3-1.3-4.6C182.7,128,182.2,127.4,181.7,126.9z M175.7,128.8c2.4,0,4.4,2,4.4,4.4
		c0,2.4-2,4.4-4.4,4.4c-2.4,0-4.4-2-4.4-4.4C171.3,130.8,173.3,128.8,175.7,128.8z"/>
</g>
</svg>
