<?xml version="1.0" encoding="utf-8"?>
<!-- Generator: Adobe Illustrator 18.0.0, SVG Export Plug-In . SVG Version: 6.00 Build 0)  -->
<!DOCTYPE svg PUBLIC "-//W3C//DTD SVG 1.1//EN" "http://www.w3.org/Graphics/SVG/1.1/DTD/svg11.dtd">
<svg version="1.1" id="Layer_1" xmlns="http://www.w3.org/2000/svg" xmlns:xlink="http://www.w3.org/1999/xlink" x="0px" y="0px"
	 viewBox="0 0 194.3 147.8" enable-background="new 0 0 194.3 147.8" xml:space="preserve">
<g id="Layer_93">
	<g>
		<path fill="#1B9BD7" d="M155.7,15.3H35.6v79.2h120.1V15.3z M143.5,82.3H47.8V27.4h95.7C143.5,27.4,143.5,82.3,143.5,82.3z"/>
		<polygon fill="#1B9BD7" points="112.2,121.5 79.5,121.5 18.4,121.5 18.4,126.7 173,126.7 173,121.5 		"/>
		<path fill="#1B9BD7" d="M155.7,98.1H97.4H94H35.6L19.3,120H172L155.7,98.1z M138.4,102.1h6.6v3.3h-6.6V102.1z M149.1,107.4v3.3
			h-6.5v-3.3H149.1z M140.9,107.4v3.3h-6.6v-3.3H140.9z M129.4,102.1h6.6v3.3h-6.6V102.1z M131.9,107.4v3.3h-6.6v-3.3H131.9z
			 M120.2,102.1h6.6v3.3h-6.6V102.1z M122.7,107.4v3.3h-6.6v-3.3H122.7z M110.7,102.1h6.6v3.3h-6.6V102.1z M101.5,102.1h6.6v3.3
			h-6.6V102.1z M104,107.4v3.3h-6.6v-3.3H104z M92.5,102.1h6.6v3.3h-6.6V102.1z M95,107.4v3.3h-6.6v-3.3H95z M83.2,102.1h6.6v3.3
			h-6.6V102.1z M85.7,107.4v3.3h-6.6v-3.3H85.7z M73.8,102.1h6.6v3.3h-6.6V102.1z M76.3,107.4v3.3h-6.6v-3.3H76.3z M64.6,102.1h6.6
			v3.3h-6.6V102.1z M67.1,107.4v3.3h-6.6v-3.3H67.1z M55.6,102.1h6.6v3.3h-6.6V102.1z M58.1,107.4v3.3h-6.6v-3.3H58.1z M46.3,102.1
			h6.6v3.3h-6.6V102.1z M42.2,107.4h6.6v3.3h-6.6V107.4z M43.5,115.7h-6.6v-3.3h6.6V115.7z M51.9,115.7h-6.6v-3.3h6.6V115.7z
			 M61.2,115.7h-6.6v-3.3h6.6V115.7z M70.2,115.7h-6.6v-3.3h6.6L70.2,115.7L70.2,115.7z M79.4,115.7h-6.6v-3.3h6.6V115.7z
			 M106.5,115.7H82.3v-3.3h24.3V115.7z M106.6,107.4h6.6v3.3h-6.6V107.4z M116.3,115.7h-6.6v-3.3h6.6V115.7z M125.8,115.7h-6.6v-3.3
			h6.6V115.7z M135,115.7h-6.6v-3.3h6.6V115.7z M144,115.7h-6.6v-3.3h6.6V115.7z M152.4,115.7h-6.6v-3.3h6.6V115.7z"/>
	</g>
</g>
</svg>
