<?xml version="1.0" encoding="utf-8"?>
<!-- Generator: Adobe Illustrator 18.0.0, SVG Export Plug-In . SVG Version: 6.00 Build 0)  -->
<!DOCTYPE svg PUBLIC "-//W3C//DTD SVG 1.1//EN" "http://www.w3.org/Graphics/SVG/1.1/DTD/svg11.dtd">
<svg version="1.1" id="Layer_1" xmlns="http://www.w3.org/2000/svg" xmlns:xlink="http://www.w3.org/1999/xlink" x="0px" y="0px"
	 viewBox="0 0 194.3 147.8" enable-background="new 0 0 194.3 147.8" xml:space="preserve">
<g>
	<path fill-rule="evenodd" clip-rule="evenodd" fill="#1B9BD7" d="M71.1,15.9h53.6c1.1,0,2,0.9,2,2l0,103.7c0,1.1-0.9,2-2,2l-53.6,0
		c-1.1,0-2-0.9-2-2V17.9C69.1,16.8,70,15.9,71.1,15.9z M72,6.6h51.8c5.9,0,10.8,4.8,10.8,10.8v112c0,5.9-4.8,10.8-10.8,10.8H72
		c-5.9,0-10.8-4.8-10.8-10.8v-112C61.2,11.4,66,6.6,72,6.6z"/>
	<g>
		<defs>
			<path id="SVGID_1_" d="M90.7,10.4h14.5c0.5,0,1,0.4,1,1c0,0.5-0.4,1-1,1H90.7c-0.5,0-1-0.4-1-1C89.7,10.8,90.1,10.4,90.7,10.4"/>
		</defs>
		<use xlink:href="#SVGID_1_"  overflow="visible" fill-rule="evenodd" clip-rule="evenodd" fill="#FFFFFF"/>
		<clipPath id="SVGID_2_">
			<use xlink:href="#SVGID_1_"  overflow="visible"/>
		</clipPath>
		<rect x="89.7" y="10.4" clip-path="url(#SVGID_2_)" fill="#FFFFFF" width="16.4" height="1.9"/>
	</g>
	<g>
		<defs>
			<path id="SVGID_3_" d="M101.6,131.4c0-2-1.7-3.7-3.7-3.7c-2,0-3.7,1.7-3.7,3.7c0,2,1.7,3.7,3.7,3.7
				C99.9,135.1,101.6,133.4,101.6,131.4"/>
		</defs>
		<use xlink:href="#SVGID_3_"  overflow="visible" fill-rule="evenodd" clip-rule="evenodd" fill="#FFFFFF"/>
		<clipPath id="SVGID_4_">
			<use xlink:href="#SVGID_3_"  overflow="visible"/>
		</clipPath>
		<rect x="94.2" y="127.7" clip-path="url(#SVGID_4_)" fill="#FFFFFF" width="7.4" height="7.4"/>
	</g>
</g>
</svg>
