<?xml version="1.0" encoding="utf-8"?>
<!-- Generator: Adobe Illustrator 18.0.0, SVG Export Plug-In . SVG Version: 6.00 Build 0)  -->
<!DOCTYPE svg PUBLIC "-//W3C//DTD SVG 1.1//EN" "http://www.w3.org/Graphics/SVG/1.1/DTD/svg11.dtd">
<svg version="1.1" id="Layer_3" xmlns="http://www.w3.org/2000/svg" xmlns:xlink="http://www.w3.org/1999/xlink" x="0px" y="0px"
	 viewBox="0 0 53.3 59" enable-background="new 0 0 53.3 59" xml:space="preserve">
<g>
	<path fill="#008DCE" d="M17.1,36.2h2.4c0-3.5,2.7-5.6,4.2-5.6v-2.4C21,28.2,17.1,31.3,17.1,36.2z M22.9,30.2
		c-1.7,0.3-4,2.5-4.2,5.6h-1.5c0.2-4.1,3.3-6.8,5.6-7.1V30.2z"/>
	<path fill="#009DE1" d="M17.3,35.8h1.5c0.2-3.1,2.4-5.2,4.2-5.6v-1.5C20.6,29,17.5,31.7,17.3,35.8z"/>
	<path fill="#008DCE" d="M27.3,50.2c-6.5,0-11.9,0.2-11.9,0.4c0,0.2,5.3,0.4,11.9,0.4s11.9-0.2,11.9-0.4
		C39.2,50.4,33.9,50.2,27.3,50.2"/>
	<path fill="#DDA97F" d="M17.6,38v-1.8v-0.3c0-0.3,0.3-0.6,0.6-0.6h0.4c0.3,0,0.6,0.3,0.6,0.6v0.3v1.7"/>
	<rect x="17.6" y="35.9" fill="#A55E26" width="1.5" height="0.8"/>
	<path fill="#FDCE26" d="M20.3,38.3c-0.1-0.1-0.3-0.1-0.4-0.1l0,0C20,38.2,20.2,38.2,20.3,38.3z"/>
	<path fill="#DDA227" d="M18.1,40h0.5c0,0,0.1,0,0.1,0c0,0,0.1,0,0.1,0h0.9c0.3,0,0.5-0.2,0.7-0.4h0.1c0,0.4-0.3,0.7-0.8,0.7h-0.9
		c0,0-0.1,0-0.1,0c0,0-0.1,0-0.1,0h-0.5c-0.4,0-0.8-0.3-0.8-0.8v-0.4C17.4,39.6,17.7,40,18.1,40z"/>
	<path fill="#FDCE26" d="M19.4,37v0.9v0.4h0.5l0,0c0.2,0,0.3,0.1,0.4,0.1c0.1,0.1,0.2,0.2,0.2,0.3c0.1,0.1,0.1,0.2,0.1,0.4h-0.2
		c-0.1-0.2-0.3-0.4-0.5-0.4c-0.2,0-0.4,0.2-0.5,0.4l0,0.1v0.2c0.1,0.2,0.3,0.4,0.5,0.4h0.6c-0.1,0.2-0.4,0.4-0.7,0.4h-0.9
		c0,0-0.1,0-0.1,0c0,0-0.1,0-0.1,0h-0.5c-0.4,0-0.8-0.3-0.8-0.8V37"/>
	<rect x="22.8" y="28.6" fill="#D2B397" width="9.5" height="7.6"/>
	<polygon fill="#B7977D" points="26.1,28.9 29.1,28.9 29.1,28.6 26.1,28.1 	"/>
	<rect x="17.1" y="34.5" fill="#008DCE" width="2.7" height="1.7"/>
	<rect x="16.7" y="34.5" fill="#008DCE" width="0.3" height="1.7"/>
	<rect x="19.8" y="34.5" fill="#008DCE" width="0.3" height="1.7"/>
	<polygon fill="#008DCE" points="31.4,38.1 30.8,43.3 29.7,49 28.6,49 29.9,43.3 29.6,39.9 25.4,39.9 27.2,49 26.3,49 23.9,38.1 	
		"/>
	<polygon fill="#008DCE" points="21.7,36.2 33.3,36.2 33.8,36.2 33.3,43.2 31,49 30.8,49 29.7,49 29.2,49 30.7,43.3 30.5,39.7 
		24.9,39.7 25.8,45.7 26.6,49 26.3,49 25.6,49 25.3,49 21.2,36.2 	"/>
	<polygon fill="#009DE1" points="28.3,28.9 29.1,28.2 32.8,27.8 33.8,27.3 33.8,28.9 33.8,36.2 27.4,37.5 22.8,29.5 	"/>
	<polygon fill="#009DE1" points="21.4,27.8 21.6,26.4 26.2,28.2 27,28.8 27.7,29.5 27.6,39.8 21.2,36.2 	"/>
	<circle fill="#F7F9FD" cx="27" cy="31.6" r="0.3"/>
	<circle fill="#F7F9FD" cx="27" cy="33.9" r="0.3"/>
	<circle fill="#F7F9FD" cx="27" cy="35.9" r="0.3"/>
	<polygon fill="#008DCE" points="22.7,32.4 24.1,32.8 25.6,32.4 25.6,31.6 22.7,31.6 	"/>
	<polygon fill="#008DCE" points="21.5,31 22.2,36.8 25.2,48.5 21.2,36.2 	"/>
	<polygon fill="#008DCE" points="26.4,28.4 25.5,29.8 21.4,28.7 25.2,29.2 	"/>
	<polygon fill="#008DCE" points="28.4,29 28.6,30.5 33.7,28.4 29,30 	"/>
	<polygon fill="#008DCE" points="33.8,29.8 33.8,36.2 33.3,43.2 31,48.5 32.9,43.1 33.1,36.4 	"/>
	<rect x="28.3" y="50.4" fill="#333333" width="4.5" height="0.3"/>
	<path fill="#5A4B46" d="M30.4,49.9c0,0-0.1,0-0.1,0c-0.7,0-1.2-0.5-1.2-1.1c0-0.1,0-0.2,0.1-0.4h2.4c0.7,0,1.3,0.5,1.3,1.1V50
		L30.4,49.9L30.4,49.9z"/>
	<path fill="#333333" d="M29.1,48.5L29.1,48.5c0,0.1,0,0.2,0,0.4c0,0.6,0.5,1.1,1.2,1.1c0,0,0.1,0,0.1,0v0h2.4v0.4h-2.4h-2.1V50
		v-0.4C28.3,49,28.7,48.5,29.1,48.5z"/>
	<path fill="#333333" d="M30.8,49.2L30.8,49.2c-0.1-0.2,0-0.4,0.1-0.6c0.2-0.2,0.6-0.2,0.6-0.2l0,0.1c0,0-0.3,0-0.5,0.2
		C30.9,48.8,30.8,49,30.8,49.2z"/>
	<path fill="#333333" d="M30.3,49.2L30.3,49.2c-0.1-0.2,0-0.4,0.1-0.6c0.2-0.2,0.6-0.2,0.6-0.2l0,0.1c0,0-0.3,0-0.5,0.2
		C30.4,48.8,30.3,49,30.3,49.2z"/>
	<path fill="#333333" d="M29.9,49.2L29.9,49.2c-0.1-0.2,0-0.4,0.1-0.6c0.2-0.2,0.6-0.2,0.6-0.2l0,0.1c0,0-0.3,0-0.5,0.2
		C29.9,48.8,29.9,49,29.9,49.2z"/>
	<rect x="22.9" y="50.4" fill="#333333" width="4.5" height="0.3"/>
	<path fill="#5A4B46" d="M25.4,49.9c0,0,0.1,0,0.1,0c0.7,0,1.2-0.5,1.2-1.1c0-0.1,0-0.2-0.1-0.4h-2.4c-0.7,0-1.3,0.5-1.3,1.1V50
		L25.4,49.9L25.4,49.9z"/>
	<path fill="#333333" d="M26.7,48.5L26.7,48.5c0,0.1,0,0.2,0,0.4c0,0.6-0.5,1.1-1.2,1.1c0,0-0.1,0-0.1,0v0h-2.4v0.4h2.4h2.1V50v-0.4
		C27.4,49,27.1,48.5,26.7,48.5z"/>
	<path fill="#333333" d="M25,49.2L25,49.2c-0.1-0.2-0.2-0.4-0.3-0.5c-0.2-0.2-0.5-0.2-0.5-0.2l0-0.1c0,0,0.3,0,0.6,0.2
		C25,48.8,25,49,25,49.2z"/>
	<path fill="#333333" d="M25.5,49.2L25.5,49.2c-0.1-0.2-0.2-0.4-0.3-0.5c-0.2-0.2-0.5-0.2-0.5-0.2l0-0.1c0,0,0.3,0,0.6,0.2
		C25.5,48.8,25.5,49,25.5,49.2z"/>
	<path fill="#333333" d="M26,49.2L26,49.2c-0.1-0.2-0.2-0.4-0.3-0.5c-0.2-0.2-0.5-0.2-0.5-0.2l0-0.1c0,0,0.3,0,0.6,0.2
		C25.9,48.8,26,49,26,49.2z"/>
	<path fill="#A55E26" d="M36.6,13c0.1-0.8-0.4-1.5-1.2-1.6L24,10c-0.8-0.1-1.5,0.5-1.6,1.3L21,25.1c-0.1,0.8,0.8,1.7,1.6,2
		c0.8,0.4,2.1,0.9,4.8,1.4c2.7,0.5,4,0.1,4.8,0c0.8-0.1,1.7-0.7,1.9-1.5L36.6,13"/>
	<path fill="#DDA97F" d="M34.6,24.8c0,0,0,1.9-0.9,2.4c-0.9,0.5-4.1-0.1-4.1-0.1s0,0.8-1.5,0.7c-1.6-0.1-2.4-1.4-2.4-1.4
		s-1.4,0.5-3.1-0.5c-1.7-1-0.1-11.2-0.1-11.2L23.7,9l13.1,2.6L34.6,24.8"/>
	<path fill="#EAA164" d="M21.4,19.5c0.3,0,0.6-0.2,0.7-0.5l0.1-0.8c0-0.3-0.2-0.6-0.5-0.7l-0.4,0c-0.3,0-0.6,0.1-0.7,0.5
		C20.4,19.5,21.4,19.5,21.4,19.5z"/>
	<path fill="#F7BD88" d="M20.8,18.3c0.1,0.9,0.8,1,0.8,1c0.3,0,0.6-0.2,0.7-0.5l0.1-0.6c0-0.3-0.2-0.6-0.5-0.7l-0.4,0
		C21.2,17.4,20.7,17.4,20.8,18.3z"/>
	<path fill="#EAA164" d="M35.6,21.4c-0.3,0-0.6-0.3-0.5-0.6l0.1-0.8c0-0.3,0.3-0.5,0.6-0.5l0.4,0c0.3,0,0.6,0.2,0.5,0.6
		C36.5,21.6,35.6,21.4,35.6,21.4z"/>
	<path fill="#F7BD88" d="M36.4,20.5c-0.3,0.8-1,0.7-1,0.7c-0.3,0-0.6-0.3-0.5-0.6l0.1-0.6c0-0.3,0.3-0.5,0.7-0.5l0.4,0
		C36.3,19.6,36.7,19.7,36.4,20.5z"/>
	<path fill="#DDA97F" d="M29.8,16.1c0,0,0.6,4.8-0.1,5.8c-0.4,0.6-2.7-1.1-2.8-1.4c-0.1-0.3,0.4-0.5,0.4-0.5l0.5-0.1l1,0.3
		L29.8,16.1z"/>
	<path fill="#A55E26" d="M29.8,16.1c0.2,0.8,0.3,1.6,0.3,2.4c0.1,0.8,0.1,1.6,0,2.5c0,0.2-0.1,0.4-0.1,0.6c0,0.1-0.1,0.2-0.2,0.3
		c-0.1,0.1-0.3,0.2-0.4,0.2c-0.2,0-0.4-0.1-0.6-0.2c-0.2-0.1-0.4-0.2-0.6-0.3c-0.4-0.2-0.7-0.5-1-0.7c-0.1-0.1-0.2-0.1-0.2-0.2
		c0,0-0.1-0.1-0.1-0.1c0,0,0,0,0-0.1l0-0.1l0,0c0-0.2,0.1-0.3,0.2-0.3c0.1-0.1,0.2-0.1,0.3-0.1l0,0l0,0c0.2,0,0.3,0,0.5,0
		c-0.2,0-0.3,0.1-0.5,0.1l0,0C27.2,20,27,20.2,27,20.3c0,0.1,0.1,0.1,0.1,0.2c0.1,0.1,0.1,0.1,0.2,0.2c0.3,0.2,0.7,0.5,1,0.7
		c0.2,0.1,0.4,0.2,0.5,0.3c0.2,0.1,0.4,0.1,0.5,0.1c0.1,0,0.1,0,0.2,0c0-0.1,0.1-0.1,0.1-0.2c0.1-0.2,0.1-0.4,0.1-0.6
		c0.1-0.8,0.1-1.6,0.1-2.4c0-0.4,0-0.8,0-1.2L29.8,16.1z"/>
	
		<ellipse transform="matrix(-0.9928 -0.1196 0.1196 -0.9928 62.1955 40.6625)" fill="#DB894B" cx="32.3" cy="18.5" rx="0.6" ry="0.7"/>
	<circle fill="#F7F9FD" cx="32.3" cy="18.6" r="0.6"/>
	<circle fill="#2E4C8F" cx="32" cy="18.5" r="0.3"/>
	<path fill="#DB894B" d="M26.4,17.7c0,0.4-0.4,0.7-0.7,0.7c-0.3,0-0.7-0.5-0.6-0.9c0-0.4,0.4-0.6,0.8-0.6
		C26.2,16.9,26.5,17.3,26.4,17.7z"/>
	<circle fill="#F7F9FD" cx="25.8" cy="17.8" r="0.6"/>
	<circle fill="#2E4C8F" cx="25.9" cy="17.6" r="0.3"/>
	<path fill="#4B200C" d="M30.8,22.6c-1.9,0-4.4-0.3-5.6-1.4c1.2,1.4,1.2,1.9,2.9,2.1C29.7,23.5,29.4,22.8,30.8,22.6z"/>
	<path fill="#4B200C" d="M25.2,21.2c-0.1-0.1-0.1-0.2-0.1-0.2c-0.3-0.1-0.8-0.2-1.2,0.7C24.4,20.8,25.2,21.2,25.2,21.2z"/>
	<path fill="#4B200C" d="M31.7,23.2c0.1,0.1-0.6-0.9-0.7-0.8c-0.1,0.1,0.3,0.1-0.1,0.3C31.3,22.7,31.6,23.1,31.7,23.2z"/>
	<path fill="#FFFFFF" d="M30.1,22.7c-0.8,0-3-0.1-4-0.7c-0.1,0,0.3,0.8,2.1,1.2C28.9,23.2,29.8,23.1,30.1,22.7z"/>
	<path fill="#7A3C1A" d="M31.5,16.3c-0.2,0-0.5,0.5-0.3,0.6c0.2,0.2,2,0.4,2,0.4s0.2-0.3,0.1-0.4C33.2,16.8,31.7,16.3,31.5,16.3"/>
	<path fill="#7A3C1A" d="M27.8,15.7c0.2,0.1,0.4,0.6,0.1,0.7c-0.2,0.1-2.3-0.2-2.3-0.2s-0.1-0.4,0.1-0.4
		C25.8,15.8,27.6,15.6,27.8,15.7z"/>
	<path fill="#7A3C1A" d="M21.7,18.4c0,0-0.7-2.9-0.1-4.7l1,0.3L21.7,18.4"/>
	<path fill="#7A3C1A" d="M34.7,20.8c0,0,2-2.2,2.3-4.1L36,16.5L34.7,20.8"/>
	<line fill="#EAA164" x1="33.2" y1="37.7" x2="33.5" y2="37.6"/>
	<path fill="#DDA97F" d="M33.5,37.6l2.5-1.3l0.2-0.1c0.3-0.1,0.4-0.5,0.3-0.8l-0.2-0.3c-0.1-0.3-0.5-0.4-0.8-0.3l-0.2,0.1l-1.5,0.8
		l-0.2,0.1"/>
	
		<rect x="34.7" y="35.3" transform="matrix(0.4569 0.8895 -0.8895 0.4569 51.0274 -12.1839)" fill="#A55E26" width="1.5" height="0.8"/>
	
		<rect x="15.4" y="40.6" transform="matrix(-0.9934 -0.1149 0.1149 -0.9934 31.3387 88.0285)" fill="#009DE1" width="5.7" height="5.1"/>
	
		<rect x="20" y="39.1" transform="matrix(-0.9934 -0.1146 0.1146 -0.9934 36.0271 82.0756)" fill="#009DE1" width="0.7" height="1.7"/>
	<polygon fill="#009DE1" points="20.7,39.6 20.8,39.1 19.4,38.9 19.6,39.5 	"/>
	
		<rect x="20.6" y="40.9" transform="matrix(-0.9934 -0.115 0.115 -0.9934 37.5119 89.1085)" fill="#008DCE" width="1.5" height="5.1"/>
	
		<rect x="17.2" y="40.6" transform="matrix(-0.9934 -0.1148 0.1148 -0.9934 32.1515 83.3819)" fill="#008DCE" width="2.6" height="0.3"/>
	
		<rect x="34.9" y="34.5" transform="matrix(0.5148 0.8573 -0.8573 0.5148 47.9191 -13.8719)" fill="#008DCE" width="2.7" height="1.7"/>
	
		<rect x="35.3" y="33.2" transform="matrix(0.5145 0.8575 -0.8575 0.5145 46.4341 -13.8301)" fill="#008DCE" width="0.3" height="1.7"/>
	
		<rect x="36.8" y="35.8" transform="matrix(0.5145 0.8575 -0.8575 0.5145 49.4371 -13.9058)" fill="#008DCE" width="0.3" height="1.7"/>
	<path fill="#00848C" d="M36.2,15.2L36,16.5l1,0.2l-0.2-1.4L36.2,15.2 M22.2,12.8c-0.2,0-0.8,0.3-0.8,2l0,0c0-0.4,0.1-0.8,0.2-1.1
		l0.5,0.2L22.2,12.8"/>
	<path fill="#A3704A" d="M22.3,12.8C22.3,12.8,22.3,12.8,22.3,12.8l-0.1,1.1l0.5,0.1l0.3-1.1L22.3,12.8
		C22.4,12.8,22.3,12.8,22.3,12.8"/>
	<path fill="#A88061" d="M22.9,12.9L22.6,14l0.1,0l-0.3,1.3c0,0,0.1,0,0.1,0c0.4,0,1.1,0,2.3-0.2c0.2,0,0.5,0,0.7,0
		c3.1,0,9.5,1.8,10.3,2l0.2-0.6l0,0l0.2-1.3L22.9,12.9"/>
	<path fill="#00848C" d="M37.1,16.8c0,0.1-0.1,0.2-0.1,0.4c0.1-0.1,0.1-0.3,0.1-0.3L37.1,16.8"/>
	<path fill="#592C15" d="M21.6,13.7c-0.1,0.3-0.2,0.7-0.2,1.1l0.6,0.4c0,0,0,0.1,0.4,0.1l0.3-1.3l-0.1,0l-0.5-0.1L21.6,13.7"/>
	<path fill="#592C15" d="M36,16.5l-0.2,0.6c0,0,0.1,0,0.1,0s0.4,0.2,0.7,0.2c0,0,0,0,0,0c0.1,0,0.2-0.1,0.3-0.2
		c0-0.1,0.1-0.2,0.1-0.4l0-0.1L36,16.5L36,16.5"/>
	<path fill="#009DE1" d="M30.8,5.8l-0.1-0.3c0.1,0,0.2,0,0.2,0c4.6,0.9,7.5,5.8,6.5,11l-9.2-1.8C21.2,10.1,30.8,5.8,30.8,5.8z"/>
	<path fill="#008DCE" d="M30.8,5.5l0.1,0.3c0,0-9.7,4.4-2.5,8.9l-7.4-1.4C21.9,8.2,26.3,4.7,30.8,5.5z"/>
	<rect x="28" y="5" transform="matrix(-0.982 -0.1886 0.1886 -0.982 58.2343 25.5087)" fill="#009DE1" width="4.6" height="9.9"/>
	<polygon fill="#008DCE" points="27.6,6.2 28.8,6 27.1,14.4 26.8,14.3 	"/>
	<path fill="#009DE1" d="M21.1,13.2c4.2,0.6,17,2.9,17.5,3.5c0.4,0.4,0.2,0.5,0,0.5c-0.6-0.2-1.2-0.3-1.2-0.3
		c-3.7-0.7-6.7-1.3-9.1-1.8c-5.2-1.1-7.7-1.7-8-2C20.6,13.1,20.8,13.1,21.1,13.2z"/>
	<path fill="#008DCE" d="M19.8,13.1c0.1,0,0.3,0,0.5,0c0.3,0.4,2.8,1,8,2c2.4,0.5,5.4,1.1,9.1,1.8c0,0,0.6,0.1,1.2,0.3
		c-0.1,0-0.1,0-0.1,0l-8-1.5l-10.8-2.1C19.7,13.6,18.8,13.1,19.8,13.1z"/>
	<polygon fill="#009DE1" points="34.1,6.9 33.4,6.4 31.6,15.3 31.9,15.3 	"/>
	<path fill="#E2E2E5" d="M31.1,32.5c-0.1-0.3-0.3-0.7-0.4-0.7c-0.1,0-0.3,0-0.7,0.2c-0.1,0.1-0.3,0.1-0.4,0.2l-0.4-0.8
		c0.1-0.1,0.3-0.1,0.4-0.2c0.5-0.2,0.9-0.5,1.4-0.3c0.6,0.2,0.9,1,1,1.3L31.1,32.5z"/>
	<path fill="#A55E26" d="M31.5,31.8c0.1-0.1,0.3,0,0.4,0.1l0.8,1.5c0.1,0.1,0.1,0.4,0,0.5l-0.3,0.5c-0.1,0.1-0.1,0.4,0,0.5l2,4.6
		c0.1,0.1,0,0.3-0.1,0.4L34,40.1c-0.1,0.1-0.3,0-0.4-0.1L31,34.9c-0.1-0.1-0.2-0.4-0.3-0.5l-0.2-0.4c-0.1-0.1-0.2-0.4-0.3-0.5
		L30,32.9c-0.1-0.1,0-0.3,0.1-0.4L31.5,31.8z"/>
	<path fill="#FDCE26" d="M32.6,35.1c0.1,0.1,0.2,0.2,0.3,0.3l0,0C32.9,35.2,32.8,35.1,32.6,35.1z"/>
	<path fill="#DDA227" d="M32.2,37.7l-0.2-0.4c0,0,0-0.1-0.1-0.1c0,0-0.1-0.1-0.1-0.1l-0.4-0.8c-0.1-0.2-0.1-0.5,0-0.8l-0.1-0.1
		c-0.4,0.2-0.5,0.6-0.3,1l0.4,0.8c0,0,0,0.1,0.1,0.1c0,0,0,0.1,0.1,0.1l0.2,0.4c0.2,0.4,0.7,0.5,1,0.3l0.3-0.2
		C32.8,38.3,32.3,38.1,32.2,37.7z"/>
	<path fill="#FDCE26" d="M32.4,35.3c0.1,0,0.2,0.1,0.2,0.2c0.1,0.2,0.1,0.5-0.1,0.6l0,0l-0.2,0.1c-0.2,0.1-0.5,0-0.6-0.3l-0.3-0.5
		c-0.1,0.2-0.2,0.5,0,0.8l0.4,0.8c0,0,0,0.1,0.1,0.1c0,0,0,0.1,0.1,0.1l0.2,0.4c0.2,0.4,0.7,0.5,1,0.3l2-1.1l-0.9-1.8l-0.8,0.4
		l-0.3,0.2L33,35.4l0,0c-0.1-0.1-0.2-0.2-0.3-0.3c-0.1,0-0.2-0.1-0.3-0.1L32.4,35.3"/>
	<path fill="#009DE1" d="M37.3,32.3c-0.1-1.2-2.6-2.3-3.6-2.7V28c2.3-0.2,4.8,2.2,5.4,4.4c0.4,1.6-0.2,3.1-1.7,3.8l-0.8-1.7
		C37.1,34.1,37.4,33.8,37.3,32.3z"/>
	<polygon fill="#3B4568" points="33.8,30.3 33.9,30.4 33.8,30.4 	"/>
	<path fill="#008DCE" d="M33.7,29.7c1,0.4,3.6,1.5,3.6,2.7c0.1,1.4-0.2,1.7-0.8,2.1L36.4,34c0.3-0.1,0.6-0.3,0.4-1
		c-0.3-1.3-2-2.5-3-2.4v-0.2L33.7,29.7z"/>
</g>
</svg>
