<?xml version="1.0" encoding="utf-8"?>
<!-- Generator: Adobe Illustrator 18.0.0, SVG Export Plug-In . SVG Version: 6.00 Build 0)  -->
<!DOCTYPE svg PUBLIC "-//W3C//DTD SVG 1.1//EN" "http://www.w3.org/Graphics/SVG/1.1/DTD/svg11.dtd">
<svg version="1.1" id="Layer_1" xmlns="http://www.w3.org/2000/svg" xmlns:xlink="http://www.w3.org/1999/xlink" x="0px" y="0px"
	 viewBox="0 0 155.3 132" enable-background="new 0 0 155.3 132" xml:space="preserve">
<g>
	<defs>
		<rect id="SVGID_1_" x="11" y="-38" width="323.5" height="170"/>
	</defs>
	<clipPath id="SVGID_2_">
		<use xlink:href="#SVGID_1_"  overflow="visible"/>
	</clipPath>
	<path clip-path="url(#SVGID_2_)" fill="#939393" d="M102,115.9V46.7V115.9z"/>
	<g clip-path="url(#SVGID_2_)">
		<defs>
			<path id="SVGID_3_" d="M11.8,41.2c0,0,5.9,67.5,58.5,90c3.3-1.6,65.2-39.3,65-120.9C122.7,4,110.1,1.5,98.2,1.5
				C50.6,1.5,11.8,41.2,11.8,41.2z"/>
		</defs>
		<clipPath id="SVGID_4_">
			<use xlink:href="#SVGID_3_"  overflow="visible"/>
		</clipPath>
		
			<linearGradient id="SVGID_5_" gradientUnits="userSpaceOnUse" x1="0.1506" y1="143.1885" x2="0.877" y2="143.1885" gradientTransform="matrix(40.8696 210.3203 -183.069 35.5741 26265.6758 -5137.4771)">
			<stop  offset="0" style="stop-color:#BCBEC0"/>
			<stop  offset="0.25" style="stop-color:#DEDEDF"/>
			<stop  offset="0.51" style="stop-color:#FFFFFF"/>
			<stop  offset="0.75" style="stop-color:#E8E9EA"/>
			<stop  offset="1" style="stop-color:#D1D3D4"/>
		</linearGradient>
		<polygon clip-path="url(#SVGID_4_)" fill="url(#SVGID_5_)" points="-12.5,6.2 16.3,154.4 159.9,126.5 131.1,-21.7 		"/>
	</g>
	<g clip-path="url(#SVGID_2_)">
		<defs>
			<path id="SVGID_6_" d="M19.6,44.4c0,0,5.1,59,51.2,78.6c2.9-1.4,57-34.4,56.8-105.7c-11-5.5-22-7.8-32.5-7.8
				C53.5,9.6,19.6,44.4,19.6,44.4"/>
		</defs>
		<clipPath id="SVGID_7_">
			<use xlink:href="#SVGID_6_"  overflow="visible"/>
		</clipPath>
		
			<linearGradient id="SVGID_8_" gradientUnits="userSpaceOnUse" x1="0.1476" y1="143.1871" x2="0.8739" y2="143.1871" gradientTransform="matrix(87.0295 188.3776 -173.7693 80.2805 24910.7598 -11524.9756)">
			<stop  offset="0" style="stop-color:#00AEEF"/>
			<stop  offset="0.22" style="stop-color:#0095DA"/>
			<stop  offset="0.33" style="stop-color:#00A2E5"/>
			<stop  offset="0.44" style="stop-color:#00AEEF"/>
			<stop  offset="0.72" style="stop-color:#0085CD"/>
			<stop  offset="1" style="stop-color:#005BAA"/>
		</linearGradient>
		<polygon clip-path="url(#SVGID_7_)" fill="url(#SVGID_8_)" points="-23.6,29.6 38.6,164.2 170.9,103.1 108.7,-31.6 		"/>
	</g>
	<g clip-path="url(#SVGID_2_)">
		<defs>
			<path id="SVGID_9_" d="M19.6,44.4c0,0,53.2-54.5,108-27c0.2,71.3-53.9,104.2-56.8,105.7C24.7,103.4,19.6,44.4,19.6,44.4z
				 M19.1,44.2c0,0,5.2,59.5,51.6,79.3C73.6,122,128.2,88.8,128,17c-11.1-5.6-22.2-7.8-32.8-7.8C53.3,9.1,19.1,44.2,19.1,44.2z"/>
		</defs>
		<clipPath id="SVGID_10_">
			<use xlink:href="#SVGID_9_"  overflow="visible"/>
		</clipPath>
		
			<linearGradient id="SVGID_11_" gradientUnits="userSpaceOnUse" x1="0.1326" y1="143.1938" x2="0.8754" y2="143.1938" gradientTransform="matrix(182.2829 130.3464 -131.4969 183.8919 18811.1172 -26341.3301)">
			<stop  offset="0" style="stop-color:#BCBEC0"/>
			<stop  offset="8.000000e-02" style="stop-color:#DEDEDF"/>
			<stop  offset="0.15" style="stop-color:#FFFFFF"/>
			<stop  offset="0.51" style="stop-color:#FFFFFF"/>
			<stop  offset="0.83" style="stop-color:#FFFFFF"/>
			<stop  offset="0.92" style="stop-color:#E8E9EA"/>
			<stop  offset="1" style="stop-color:#D1D3D4"/>
		</linearGradient>
		<polygon clip-path="url(#SVGID_10_)" fill="url(#SVGID_11_)" points="-44.1,78.3 91.3,175.1 191.4,35.1 56,-61.7 		"/>
	</g>
	<g clip-path="url(#SVGID_2_)">
		<defs>
			<path id="SVGID_12_" d="M55.8,23c0,0-19.9,6.9-27.4,15.3c-3,21.9,6.4,40.5,17.7,59.1c7.4-1.8,9.7-3.9,9.7-3.9S49,54.8,55.8,23z"
				/>
		</defs>
		<clipPath id="SVGID_13_">
			<use xlink:href="#SVGID_12_"  overflow="visible"/>
		</clipPath>
		<defs>
			<filter id="Adobe_OpacityMaskFilter" filterUnits="userSpaceOnUse" x="-2.5" y="11.6" width="86.4" height="97.3">
				<feColorMatrix  type="matrix" values="1 0 0 0 0  0 1 0 0 0  0 0 1 0 0  0 0 0 1 0"/>
			</filter>
		</defs>
		<mask maskUnits="userSpaceOnUse" x="-2.5" y="11.6" width="86.4" height="97.3" id="SVGID_14_">
			<g filter="url(#Adobe_OpacityMaskFilter)">
				<g>
					<defs>
						<rect id="SVGID_15_" x="25.4" y="-1520.3" width="1185.9" height="1617.8"/>
					</defs>
					<clipPath id="SVGID_16_" clip-path="url(#SVGID_13_)">
						<use xlink:href="#SVGID_15_"  overflow="visible"/>
					</clipPath>
					
						<linearGradient id="SVGID_17_" gradientUnits="userSpaceOnUse" x1="0.1471" y1="143.2607" x2="0.954" y2="143.2607" gradientTransform="matrix(1005.7217 2215.4771 -1973.1647 895.7233 282741.6562 -130252.9922)">
						<stop  offset="0" style="stop-color:#636363"/>
						<stop  offset="2.000000e-02" style="stop-color:#898989"/>
						<stop  offset="3.000000e-02" style="stop-color:#ACACAC"/>
						<stop  offset="0.51" style="stop-color:#636363"/>
						<stop  offset="0.99" style="stop-color:#000000"/>
						<stop  offset="1" style="stop-color:#000000"/>
					</linearGradient>
					<polygon clip-path="url(#SVGID_16_)" fill="url(#SVGID_17_)" points="-583.5,-1243.9 228.1,543.9 1820.3,-178.9 
						1008.7,-1966.7 					"/>
				</g>
			</g>
		</mask>
		
			<linearGradient id="SVGID_18_" gradientUnits="userSpaceOnUse" x1="0.1559" y1="143.6501" x2="0.9449" y2="143.6501" gradientTransform="matrix(1005.7216 2215.4771 -1973.1647 895.7233 282741.3438 -130250.9922)">
			<stop  offset="0" style="stop-color:#20C4F4"/>
			<stop  offset="2.000000e-02" style="stop-color:#24C5F4"/>
			<stop  offset="3.000000e-02" style="stop-color:#28C6F4"/>
			<stop  offset="0.51" style="stop-color:#94E3FA"/>
			<stop  offset="0.99" style="stop-color:#FFFFFF"/>
			<stop  offset="1" style="stop-color:#FFFFFF"/>
		</linearGradient>
		<polygon clip-path="url(#SVGID_13_)" mask="url(#SVGID_14_)" fill="url(#SVGID_18_)" points="-2.5,35.8 30.7,108.9 83.8,84.8 
			50.6,11.6 		"/>
	</g>
	<path opacity="0.1" clip-path="url(#SVGID_2_)" fill="#FFFFFF" d="M88.7,80.9c-5.2,0.2-10.4-0.2-15.7-1c1.2-3.7,2.4-7.4,3.6-11.1
		c4,1.3,8.1,2.3,12.2,2.8C88.8,74.7,88.7,77.8,88.7,80.9"/>
	<path opacity="0.1" clip-path="url(#SVGID_2_)" fill="#FFFFFF" d="M106.9,78.3c-4.9,1.3-10,2.1-15.1,2.4c-0.2-2.9-0.4-5.9-0.5-8.9
		c4.1,0.4,8.2,0.5,12.3,0.2C104.6,74.1,105.7,76.2,106.9,78.3"/>
	<path opacity="0.1" clip-path="url(#SVGID_2_)" fill="#FFFFFF" d="M88.9,91.6c-6.4,1-13.1,1.4-19.8,1.2c1.1-3.7,2.2-7.3,3.3-11
		c5.5,0.8,10.9,1,16.3,0.7C88.7,85.5,88.8,88.6,88.9,91.6"/>
	<path opacity="0.1" clip-path="url(#SVGID_2_)" fill="#FFFFFF" d="M110.9,85.4c-5.8,2.4-12,4.3-18.3,5.5c-0.3-2.9-0.5-5.8-0.7-8.7
		c5.3-0.5,10.5-1.4,15.6-2.9C108.6,81.4,109.7,83.4,110.9,85.4"/>
	<g clip-path="url(#SVGID_2_)">
		<defs>
			<path id="SVGID_19_" d="M93.4,37.4c-0.1,1.2-0.1,2.4-0.2,3.6c-0.4,4.4-0.8,8.7-1.2,13.1c-0.6,6-1.2,12-1.8,18
				c-0.3,2.7-0.7,5.4-1,8.1c2.8,0.1,4.5,0.2,5.1,0.2c1.6,0.1,3.3,0.3,4.9,0.4c0.1-1.6,0.2-2.8,0.3-3.6c0.2-2.2,0.5-5.6,1-10.2
				c0.5-4.4,1-8.7,1.5-13.1c0.5-4.1,1-8.4,1.7-12.8c1.1,0.1,2.4,0.2,3.8,0.3c1.4,0.1,2.9,0.2,4.3,0.4c1.6,0.2,2.8,0.4,3.7,0.7
				c0.8,0.3,1.6,0.7,2.3,1.3c0.7,0.6,1.1,1.3,1.4,2.1c0.3,0.8,0.3,1.8,0.2,2.7c-0.2,1.6-0.8,3-1.9,4.2c-1,1.2-2.3,2-3.9,2.4
				c-1.5,0.4-3.3,0.5-5.3,0.3c-1.5-0.2-3-0.5-4.4-0.9c0.5,2.1,0.9,4.4,1.2,6.9c1.8,0.5,3.5,0.8,5.2,1c3.3,0.4,6.4,0.1,9.3-0.7
				c2.9-0.8,5.3-2.3,7.2-4.4c1.9-2.1,3.1-4.7,3.6-7.6c0.3-1.9,0.2-3.8-0.3-5.6c-0.5-1.6-1.3-3-2.4-4.3c-1.2-1.3-2.6-2.3-4.3-3
				c-1.6-0.7-4.2-1.3-7.7-1.7c-1.7-0.2-4.1-0.4-7-0.6c-2.9-0.2-5.2-0.4-6.9-0.5c-2.1-0.2-4.7-0.4-8-0.6
				C93.5,35.1,93.5,36.5,93.4,37.4z"/>
		</defs>
		<clipPath id="SVGID_20_">
			<use xlink:href="#SVGID_19_"  overflow="visible"/>
		</clipPath>
		
			<linearGradient id="SVGID_21_" gradientUnits="userSpaceOnUse" x1="0.1493" y1="143.4028" x2="0.9568" y2="143.4028" gradientTransform="matrix(0 118.7742 -51.3419 0 7472.4531 -12.7249)">
			<stop  offset="0" style="stop-color:#BCBEC0"/>
			<stop  offset="0.18" style="stop-color:#DEDEDF"/>
			<stop  offset="0.36" style="stop-color:#FFFFFF"/>
			<stop  offset="0.51" style="stop-color:#FFFFFF"/>
			<stop  offset="0.58" style="stop-color:#FDFDFD"/>
			<stop  offset="0.66" style="stop-color:#FCFCFC"/>
			<stop  offset="0.83" style="stop-color:#E6E7E8"/>
			<stop  offset="1" style="stop-color:#D1D3D4"/>
		</linearGradient>
		<rect x="89.2" y="33.3" clip-path="url(#SVGID_20_)" fill="url(#SVGID_21_)" width="41.4" height="47.5"/>
	</g>
	<g clip-path="url(#SVGID_2_)">
		<defs>
			<path id="SVGID_22_" d="M39,33.7h-0.1h-0.1h-0.1h-0.1c-1.9,0-3.7,0.1-5.3,0.3c-4.1,0.4-7.4,1.4-10,2.8c-2.5,1.4-4.3,3.2-5.4,5.3
				c-1.1,2.1-1.4,4.2-1.1,6.3c0.2,1.2,0.5,2.2,1,3.2c0.5,1,1.2,1.9,2.1,2.8c0.9,0.9,2.2,1.9,3.8,3c0.7,0.5,2,1.3,3.9,2.5
				c3.9,2.4,6.5,4.2,8,5.3c1.2,0.8,2,1.6,2.5,2.4c0.4,0.6,0.6,1.3,0.7,2.1c0.1,1-0.1,1.9-0.7,2.8c-0.5,0.9-1.4,1.6-2.6,2.2
				c-1.2,0.6-2.6,1-4.1,1.1c-3.7,0.5-6.6-0.2-11.5-1.5c0.6,2.1,2.2,6,3.6,9c3.2,0.2,3.1-0.1,5-0.1c1.9,0,3.6-0.1,5.1-0.3
				c2.2-0.3,4.2-0.7,6.2-1.3c1.9-0.6,3.7-1.5,5.2-2.8c1.6-1.2,2.8-2.7,3.5-4.5c0.8-1.8,1.1-3.6,1-5.5c0-0.8-0.2-1.6-0.4-2.3
				c-0.2-0.7-0.5-1.4-0.9-2.1c-0.4-0.7-0.9-1.4-1.6-2.1c-0.7-0.7-1.5-1.5-2.5-2.3c-1-0.8-2-1.6-3.2-2.3c-1.6-1.1-3.2-2.3-4.9-3.4
				c-0.8-0.4-1.8-1-2.9-1.7c-1.1-0.7-2-1.3-2.7-1.8c-0.6-0.5-1.1-1-1.3-1.3c-0.3-0.3-0.5-0.7-0.6-1.1c-0.2-0.4-0.3-0.8-0.3-1.1
				c-0.2-1.3,0.5-2.6,1.9-3.8c1.5-1.2,3.4-1.9,5.9-2.2c3.3-0.3,7,0,11.1,1.1c-0.6-3-1-5.8-1.3-8.1C43.4,33.8,41.1,33.7,39,33.7"/>
		</defs>
		<clipPath id="SVGID_23_">
			<use xlink:href="#SVGID_22_"  overflow="visible"/>
		</clipPath>
		
			<linearGradient id="SVGID_24_" gradientUnits="userSpaceOnUse" x1="0.1513" y1="143.0104" x2="0.9585" y2="143.0104" gradientTransform="matrix(0 119.1733 -41.2177 0 5927.6484 -13.0548)">
			<stop  offset="0" style="stop-color:#BCBEC0"/>
			<stop  offset="0.18" style="stop-color:#DEDEDF"/>
			<stop  offset="0.36" style="stop-color:#FFFFFF"/>
			<stop  offset="0.51" style="stop-color:#FFFFFF"/>
			<stop  offset="0.58" style="stop-color:#FDFDFD"/>
			<stop  offset="0.66" style="stop-color:#FCFCFC"/>
			<stop  offset="0.83" style="stop-color:#E6E7E8"/>
			<stop  offset="1" style="stop-color:#D1D3D4"/>
		</linearGradient>
		<rect x="16.5" y="33.7" clip-path="url(#SVGID_23_)" fill="url(#SVGID_24_)" width="33.3" height="49.7"/>
	</g>
	<g clip-path="url(#SVGID_2_)">
		<defs>
			<path id="SVGID_25_" d="M71.2,31.9L71.2,31.9L71.2,31.9L71.2,31.9L71.2,31.9L71.2,31.9L71.2,31.9L71.2,31.9L71.2,31.9L71.2,31.9
				L71.2,31.9L71.2,31.9L71.2,31.9L71.2,31.9L71.2,31.9L71.2,31.9h-0.1c-3.6,0-7.1,0.4-10.4,1c-3.3,0.7-6.3,1.8-9.1,3.5
				c-2.8,1.7-5.1,3.8-6.9,6.2c-1.8,2.4-3.1,5.1-3.9,7.9c-0.8,2.8-1,5.7-0.7,8.7c0.3,3.5,1.2,6.7,2.8,9.7c1.5,3,3.6,5.3,6.1,7.1
				c2.5,1.7,5.5,2.9,8.9,3.6c3.5,0.7,7.2,1,11.1,1c2.1,0,4.7-0.2,7.7-0.4c3-0.3,6.5-0.7,10.3-1.3c0.7-9.4,1.5-17.9,2.5-25.5
				c-2.7-0.1-6.1-0.2-10.1-0.3c-3.1-0.1-6.3-0.1-9.7-0.1c0,1.6-0.1,4-0.3,7.1c2.5-0.1,4.5-0.1,6.1-0.1c0.9,0,1.9,0,2.8,0.1
				c-0.3,4-0.5,8-0.8,12.1c-1.8,0.5-3.6,0.9-5.2,1.1c-1.7,0.2-3.1,0.3-4.3,0.4c-3.4,0-6.3-0.5-9-1.7c-2.7-1.2-4.6-2.9-5.9-5.1
				c-1.2-2.3-2-4.9-2.1-7.8c-0.2-2.7,0.2-5.3,1.1-7.8c0.9-2.5,2.3-4.7,4.2-6.5c1.9-1.8,4.3-3.1,7-4c2.8-0.9,5.7-1.3,8.8-1.3
				c4.8,0,10.3,1,16.2,3.1c-0.1-2.9-0.2-5.6-0.1-8.2C81.9,32.6,76.2,31.9,71.2,31.9"/>
		</defs>
		<clipPath id="SVGID_26_">
			<use xlink:href="#SVGID_25_"  overflow="visible"/>
		</clipPath>
		
			<linearGradient id="SVGID_27_" gradientUnits="userSpaceOnUse" x1="0.1462" y1="143.1825" x2="0.953" y2="143.1825" gradientTransform="matrix(0 118.7598 -61.6266 0 8888.4932 -12.3097)">
			<stop  offset="0" style="stop-color:#BCBEC0"/>
			<stop  offset="0.18" style="stop-color:#DEDEDF"/>
			<stop  offset="0.36" style="stop-color:#FFFFFF"/>
			<stop  offset="0.51" style="stop-color:#FFFFFF"/>
			<stop  offset="0.58" style="stop-color:#FDFDFD"/>
			<stop  offset="0.66" style="stop-color:#FCFCFC"/>
			<stop  offset="0.83" style="stop-color:#E6E7E8"/>
			<stop  offset="1" style="stop-color:#D1D3D4"/>
		</linearGradient>
		<rect x="39.8" y="31.9" clip-path="url(#SVGID_26_)" fill="url(#SVGID_27_)" width="49.7" height="48.7"/>
	</g>
	<path clip-path="url(#SVGID_2_)" fill="#0060AD" d="M51.2,9.2c0,0.2-0.2,0.4-0.3,0.4c-0.2,0-0.4-0.2-0.4-0.4c0-0.2,0.2-0.3,0.4-0.3
		C51.1,8.9,51.2,9,51.2,9.2"/>
</g>
</svg>
