<?xml version="1.0" encoding="utf-8"?>
<!-- Generator: Adobe Illustrator 18.0.0, SVG Export Plug-In . SVG Version: 6.00 Build 0)  -->
<!DOCTYPE svg PUBLIC "-//W3C//DTD SVG 1.1//EN" "http://www.w3.org/Graphics/SVG/1.1/DTD/svg11.dtd">
<svg version="1.1" id="Layer_1" xmlns="http://www.w3.org/2000/svg" xmlns:xlink="http://www.w3.org/1999/xlink" x="0px" y="0px"
	 viewBox="0 0 194.3 147.8" enable-background="new 0 0 194.3 147.8" xml:space="preserve">
<path fill="#1B9BD7" d="M86.9,32.5c0-16.1,13-29.1,29.1-29.1s29.1,13,29.1,29.1c0,16.1-13,29.1-29.1,29.1S86.9,48.5,86.9,32.5z
	 M128.4,63.6h-24.7c-10.1,0-19.3,4.1-26,10.6h38.8v59.6H97.9c4.8,1,4.8,2.4,4.8,3.8c0,0.5,0,1.1-0.5,1.7c6.1,0.7,11.7,1,16.9,1
	c27.4,0,43.2-7.8,44.2-8.3l1.9-1l0.2,0v-30.2C165.6,80.3,148.9,63.6,128.4,63.6z M98.7,137.6c0,1.5-12.2,2.7-27.2,2.7
	c-15,0-27.2-1.2-27.2-2.7c0-1.1,6.3-2,15.4-2.4v-4H27.3V76.8h85v54.3H80.1v3.9C90.9,135.4,98.7,136.4,98.7,137.6z M106.8,126.5V81
	H32.9v45.5H106.8z M47.7,122.8h4.9V96.2h-4.9V122.8z M55,122.8h4.9v-20.9H55V122.8z M62.1,122.8H67V88.7h-4.9V122.8z M84.3,122.8
	h4.9V96.2h-4.9V122.8z M77,122.8h4.9v-20.9H77V122.8z M69.9,122.8h4.9V92.5h-4.9V122.8z"/>
</svg>
