<?xml version="1.0" encoding="utf-8"?>
<!-- Generator: Adobe Illustrator 18.0.0, SVG Export Plug-In . SVG Version: 6.00 Build 0)  -->
<!DOCTYPE svg PUBLIC "-//W3C//DTD SVG 1.1//EN" "http://www.w3.org/Graphics/SVG/1.1/DTD/svg11.dtd">
<svg version="1.1" id="Layer_1" xmlns="http://www.w3.org/2000/svg" xmlns:xlink="http://www.w3.org/1999/xlink" x="0px" y="0px"
	 viewBox="0 0 194.3 147.8" enable-background="new 0 0 194.3 147.8" xml:space="preserve">
<g>
	<path fill="#1B9BD7" d="M142.7,24.8h-9.9V10.9c0-3.7-3-6.7-6.7-6.7h-21.3V2.8c0-1.6-1.3-3-3-3H74.1c-1.6,0-3,1.3-3,3v1.4H49.8
		c-3.7,0-6.7,3-6.7,6.7v109.6c0,3.7,3,6.7,6.7,6.7h9.9v14c0,3.7,3,6.7,6.7,6.7h76.3c3.7,0,6.7-3,6.7-6.7V31.5
		C149.3,27.8,146.3,24.8,142.7,24.8z M59.7,31.5v88.3h-9.1V11.6h20.6v0.9c0,1.6,1.3,3,3,3h27.8c1.6,0,3-1.3,3-3v-0.9h20.6v13.2h-4
		v-1.5c0-1.6-1.3-3-3-3H90.6c-1.6,0-3,1.3-3,3v1.4H66.4C62.7,24.8,59.7,27.8,59.7,31.5z M141.9,140.4H67.1V32.2h20.6v0.9
		c0,1.6,1.3,3,3,3h27.8c1.6,0,3-1.3,3-3v-0.9h20.6L141.9,140.4L141.9,140.4z"/>
	<rect x="78.8" y="90.5" fill="#1B9BD7" width="51.4" height="10.4"/>
	<rect x="78.8" y="111.8" fill="#1B9BD7" width="51.4" height="10.4"/>
	<polygon fill="#1B9BD7" points="99.9,79.4 109.1,79.4 109.1,67.8 120.7,67.8 120.7,58.7 109.1,58.7 109.1,47.1 99.9,47.1 
		99.9,58.7 88.3,58.7 88.3,67.8 99.9,67.8 	"/>
</g>
</svg>
