<?xml version="1.0" encoding="utf-8"?>
<!-- Generator: Adobe Illustrator 18.0.0, SVG Export Plug-In . SVG Version: 6.00 Build 0)  -->
<!DOCTYPE svg PUBLIC "-//W3C//DTD SVG 1.1//EN" "http://www.w3.org/Graphics/SVG/1.1/DTD/svg11.dtd">
<svg version="1.1" id="Layer_1" xmlns="http://www.w3.org/2000/svg" xmlns:xlink="http://www.w3.org/1999/xlink" x="0px" y="0px"
	 viewBox="0 84.9 327.9 363.6" enable-background="new 0 84.9 327.9 363.6" xml:space="preserve">
<g>
	<polygon fill="#FFFFFF" points="134.9,283.6 54.7,363.7 48.8,385.7 70.8,379.8 151,299.7 	"/>
	<g>
		<path fill="#FFFFFF" d="M288.5,340.4L156.1,208c3.7-18.4-1.3-38.9-15.8-53.4c-16.6-16.6-41.1-20.6-61.3-13.6l41.5,41.5l-33.9,33.9
			l-41.8-41.8c-8.9,21.7-3.8,45.6,13.1,62.5c14.9,14.9,35.6,20.1,54.8,15.5l131.8,131.8c0,0,25.9,13,41.4-2.7
			C301.3,366.1,288.5,340.4,288.5,340.4z M249.3,370.5c-6.6-6.6-6.6-17.4,0-24s17.4-6.6,24,0s6.6,17.4,0,24
			C266.7,377.1,255.9,377.1,249.3,370.5z"/>
	</g>
	<path fill="#FFFFFF" d="M186.6,230.1l65.3-65.3c1.4-1.4,3.7-1.4,5.1,0c1.4,1.4,1.4,3.7,0,5.1l-65.3,65.3l8.5,8.5l65.3-65.3
		c1.4-1.4,3.7-1.4,5.1,0c1.4,1.4,1.4,3.7,0,5.1l-65.3,65.3l11,11l73.1-73.1c0,0,11.8-23.8-2.6-38.1c-14.4-14.2-38.1-2.6-38.1-2.6
		l-73.1,73.1L186.6,230.1z"/>
</g>
</svg>
