<?xml version="1.0" encoding="utf-8"?>
<!-- Generator: Adobe Illustrator 18.0.0, SVG Export Plug-In . SVG Version: 6.00 Build 0)  -->
<!DOCTYPE svg PUBLIC "-//W3C//DTD SVG 1.1//EN" "http://www.w3.org/Graphics/SVG/1.1/DTD/svg11.dtd">
<svg version="1.1" id="Layer_1" xmlns="http://www.w3.org/2000/svg" xmlns:xlink="http://www.w3.org/1999/xlink" x="0px" y="0px"
	 viewBox="0 0 194.3 147.8" enable-background="new 0 0 194.3 147.8" xml:space="preserve">
<path fill="#1B9BD7" d="M173.4,35.3l-9.9-18.9H31.7L20.8,33.9c-0.8,1.3,0.1,2.9,1.6,2.9L46.1,37v20.3c6.7-3.5,14.3-5.5,22.4-5.5
	c27,0,48.9,21.9,48.9,48.9c0,12.6-4.8,24.1-12.6,32.8h24.1c10.5,0,19-8.5,19-19V37.9l23.9,0.2C173.1,38.1,174.1,36.6,173.4,35.3z
	 M54.4,29.2l6.1-5.1h73.6l5.5,5.5c0.4,0.4-0.2,0.8-1,0.8L55.3,30C54.5,30,54,29.6,54.4,29.2z"/>
<g>
	<path fill="#1B9BD7" d="M68.7,59.5c-22.1,0-40,17.9-40,40s17.9,40,40,40s40-17.9,40-40S90.8,59.5,68.7,59.5z M68.7,133.5
		c-18.8,0-34-15.2-34-34s15.2-34,34-34s34,15.2,34,34S87.5,133.5,68.7,133.5z"/>
	<path fill="#1B9BD7" d="M68.7,84.9c-8.1,0-14.6,6.5-14.6,14.6s6.5,14.6,14.6,14.6s14.6-6.5,14.6-14.6S76.8,84.9,68.7,84.9z
		 M68.7,110.6c-6.1,0-11.1-5-11.1-11.1c0-6.1,5-11.1,11.1-11.1s11.1,5,11.1,11.1C79.8,105.6,74.8,110.6,68.7,110.6z"/>
	<path fill="#1B9BD7" d="M43.4,115.7c1.3,0.1,4-0.3,7.6-3.5l5.2,5.2c-2.5,2.5-3.6,6-3.5,7.8c0,0.4-0.4,0.6-0.7,0.5
		c-3.2-1.3-7.1-5.2-9.1-9.3C42.8,116.1,43.1,115.7,43.4,115.7z"/>
	<path fill="#1B9BD7" d="M93.2,84.9c-1.3-0.1-4,0.3-7.6,3.5l-5.2-5.2c2.5-2.5,3.6-6,3.5-7.8c0-0.4,0.4-0.6,0.7-0.5
		c3.2,1.3,7.1,5.2,9.1,9.3C93.8,84.6,93.5,85,93.2,84.9z"/>
</g>
</svg>
