<?xml version="1.0" encoding="utf-8"?>
<!-- Generator: Adobe Illustrator 18.0.0, SVG Export Plug-In . SVG Version: 6.00 Build 0)  -->
<!DOCTYPE svg PUBLIC "-//W3C//DTD SVG 1.1//EN" "http://www.w3.org/Graphics/SVG/1.1/DTD/svg11.dtd">
<svg version="1.1" id="Layer_1" xmlns="http://www.w3.org/2000/svg" xmlns:xlink="http://www.w3.org/1999/xlink" x="0px" y="0px"
	 viewBox="0 0 194.3 147.8" enable-background="new 0 0 194.3 147.8" xml:space="preserve">
<rect x="18.5" y="11.2" fill="none" width="152.8" height="100.3"/>
<path fill="#1B9BD7" d="M59,107.8c0,6.4-5.2,11.5-11.5,11.5s-11.5-5.2-11.5-11.5c0-6.4,5.2-11.5,11.5-11.5S59,101.4,59,107.8z
	 M156.9,96.3c-6.4,0-11.5,5.2-11.5,11.5c0,6.4,5.2,11.5,11.5,11.5c6.4,0,11.5-5.2,11.5-11.5C168.4,101.4,163.2,96.3,156.9,96.3z
	 M183.5,19.2v83.1H171c-2.1-5.6-7.4-9.5-13.7-9.5c-6.3,0-11.6,4-13.7,9.5H65.1V19.2H183.5z M147.7,49.2h-14.4V34.7h-17.9v14.4h-14.4
	v17.9h14.4v14.4h17.9V67.1h14.4V49.2z M23,44.1h36.4v48.3H34.2v-0.5l-6-2.1H23H9V66.9L23,44.1z M42.8,64.4h9.4V48.6h-9.4V64.4z
	 M26.2,48.2l-9.8,17h16.9v-17H26.2z M9,102.3h25.2l0,0V94H9V102.3z"/>
</svg>
