<?xml version="1.0" encoding="utf-8"?>
<!-- Generator: Adobe Illustrator 18.0.0, SVG Export Plug-In . SVG Version: 6.00 Build 0)  -->
<!DOCTYPE svg PUBLIC "-//W3C//DTD SVG 1.1//EN" "http://www.w3.org/Graphics/SVG/1.1/DTD/svg11.dtd">
<svg version="1.1" id="Layer_1" xmlns="http://www.w3.org/2000/svg" xmlns:xlink="http://www.w3.org/1999/xlink" x="0px" y="0px"
	 viewBox="0 0 194.3 147.8" enable-background="new 0 0 194.3 147.8" xml:space="preserve">
<path fill="#1B9BD7" d="M18.5,11.2v100.3h152.8V11.2H18.5z M96.3,13.5c2.3,0,4.2,1.9,4.2,4.2c0,2.3-1.9,4.2-4.2,4.2
	s-4.2-1.9-4.2-4.2C92.1,15.3,94,13.5,96.3,13.5z M158.6,97.9H33.1v-73h125.5V97.9z"/>
<rect x="18.5" y="11.2" fill="none" width="152.8" height="100.3"/>
<path fill="#1B9BD7" d="M178.3,134.2H11c-1.6,0-2.8-1.3-2.8-2.8v-14.5h173v14.5C181.2,133,179.9,134.2,178.3,134.2z"/>
<polygon fill="#1B9BD7" points="37.1,69.8 37.1,66.1 72.6,63.6 82.1,73.9 106.4,31.8 123,60.7 151.9,63.6 152.7,68.2 113.5,69.4 
	105.2,54.5 84.1,91.3 64.7,72.3 "/>
</svg>
